<svg width="61" height="52" viewBox="0 0 61 52" fill="none" xmlns="http://www.w3.org/2000/svg">
<path d="M3.6664 30.2559C3.916 30.2961 4.1686 30.3147 4.42133 30.3114L47.4556 30.3114L46.5173 30.7453C45.6 31.1768 44.7656 31.7641 44.0513 32.4806L31.9834 44.4761C30.394 45.9842 30.127 48.4103 31.3506 50.2244C32.7746 52.1575 35.5056 52.5772 37.4505 51.1617C37.6076 51.0473 37.757 50.9226 37.8973 50.7883L59.7199 29.0967C61.4254 27.4034 61.4269 24.6566 59.7233 22.9614C59.7223 22.9603 59.721 22.9591 59.7199 22.958L37.8973 1.26637C36.1905 -0.425438 33.4271 -0.421642 31.7249 1.27491C31.591 1.40845 31.4659 1.55053 31.3506 1.7002C30.127 3.5143 30.394 5.94037 31.9834 7.44848L44.0295 19.4656C44.6698 20.1028 45.4061 20.6371 46.2117 21.0491L47.5211 21.6348L4.66151 21.6348C2.43193 21.5525 0.4758 23.1006 0.056942 25.279C-0.328907 27.6441 1.28706 29.8722 3.6664 30.2559Z" fill="#343434"/>
</svg>
