<svg
  width="55"
  height="55"
  viewBox="0 0 55 55"
  fill="none"
  xmlns="http://www.w3.org/2000/svg"
>
<path
    d="M42.125 11H36.875C36.6429 11 36.4204 10.8946 36.2563 10.7071C36.0922 10.5196 36 10.2652 36 10C36 9.73478 36.0922 9.48043 36.2563 9.29289C36.4204 9.10536 36.6429 9 36.875 9H42.125C42.3571 9 42.5796 9.10536 42.7437 9.29289C42.9078 9.48043 43 9.73478 43 10C43 10.2652 42.9078 10.5196 42.7437 10.7071C42.5796 10.8946 42.3571 11 42.125 11Z"
    fill="#343434"
  />
<path
    d="M50.4131 28.0082C51.099 28.0082 51.7568 27.7358 52.2418 27.251C52.7268 26.7661 52.9993 26.1085 52.9993 25.4228V9.91067C52.9993 9.40222 53.2062 9.76417 46.7149 3.2663C46.3528 2.90435 47.0338 3.01638 34.8961 3.01638C34.2102 3.01638 33.5524 3.28876 33.0674 3.77361C32.5824 4.25846 32.3099 4.91606 32.3099 5.60174V9.04888H9.52576C8.43258 9.10031 7.40429 9.58257 6.66595 10.3901C5.92761 11.1977 5.53936 12.2648 5.58617 13.3578C5.58617 42.9171 5.24997 41.8657 6.3965 43.5203H3.86206C3.63342 43.5203 3.41416 43.6111 3.25249 43.7728C3.09082 43.9344 3 44.1536 3 44.3821V46.9675C3 48.5674 3.63576 50.1018 4.76743 51.2331C5.8991 52.3644 7.43397 53 9.03439 53H46.9649C48.5653 53 50.1002 52.3644 51.2318 51.2331C52.3635 50.1018 52.9993 48.5674 52.9993 46.9675V44.3821C52.9993 44.1536 52.9084 43.9344 52.7468 43.7728C52.5851 43.6111 52.3658 43.5203 52.1372 43.5203H49.6028C50.6803 41.9605 50.4131 42.0725 50.4131 28.0082ZM34.034 5.60174C34.034 5.37318 34.1248 5.15398 34.2865 4.99236C34.4482 4.83075 34.6674 4.73995 34.8961 4.73995H45.7494L51.2751 10.264V25.4228C51.2751 25.6514 51.1843 25.8706 51.0227 26.0322C50.861 26.1938 50.6417 26.2846 50.4131 26.2846H34.8961C34.6674 26.2846 34.4482 26.1938 34.2865 26.0322C34.1248 25.8706 34.034 25.6514 34.034 25.4228V5.60174ZM51.2751 46.9675C51.2751 48.1103 50.821 49.2063 50.0127 50.0144C49.2044 50.8225 48.108 51.2764 46.9649 51.2764H9.03439C7.89124 51.2764 6.7949 50.8225 5.98656 50.0144C5.17823 49.2063 4.72411 48.1103 4.72411 46.9675V45.2439H21.9652V46.1057C21.9652 46.7914 22.2377 47.449 22.7227 47.9338C23.2077 48.4187 23.8655 48.6911 24.5514 48.6911H31.4479C32.1337 48.6911 32.7915 48.4187 33.2765 47.9338C33.7615 47.449 34.034 46.7914 34.034 46.1057V45.2439H51.2751V46.9675ZM32.3099 45.2439V46.1057C32.3099 46.3343 32.2191 46.5535 32.0574 46.7151C31.8958 46.8767 31.6765 46.9675 31.4479 46.9675H24.5514C24.3228 46.9675 24.1035 46.8767 23.9418 46.7151C23.7802 46.5535 23.6893 46.3343 23.6893 46.1057V45.2439H32.3099ZM9.52576 43.5203C8.89048 43.4675 8.30163 43.1665 7.8869 42.6825C7.47216 42.1986 7.26498 41.5707 7.31028 40.935V13.3578C7.26498 12.7221 7.47216 12.0943 7.8869 11.6103C8.30163 11.1263 8.89048 10.8253 9.52576 10.7725H32.3099V12.496H22.8273C22.5987 12.496 22.3794 12.5868 22.2177 12.7484C22.0561 12.9101 21.9652 13.1293 21.9652 13.3578C21.9652 13.5864 22.0561 13.8056 22.2177 13.9672C22.3794 14.1288 22.5987 14.2196 22.8273 14.2196H32.3099V25.4228C32.3099 26.1085 32.5824 26.7661 33.0674 27.251C33.5524 27.7358 34.2102 28.0082 34.8961 28.0082H45.2407V40.0732H30.5858V36.6261C30.5851 34.9085 30.0709 33.2303 29.1094 31.8068C28.1479 30.3834 26.7828 29.2797 25.1893 28.6373C27.4221 26.9137 27.1376 24.6558 27.1376 22.7513C27.1376 21.3799 26.5926 20.0647 25.6226 19.095C24.6526 18.1253 23.337 17.5806 21.9652 17.5806C20.5934 17.5806 19.2778 18.1253 18.3078 19.095C17.3378 20.0647 16.7929 21.3799 16.7929 22.7513C16.7929 24.8196 16.5343 26.9051 18.7411 28.6373C17.1477 29.2797 15.7826 30.3834 14.8211 31.8068C13.8595 33.2303 13.3454 34.9085 13.3447 36.6261V40.0732H10.7585V14.2196H15.0688C15.2974 14.2196 15.5167 14.1288 15.6784 13.9672C15.84 13.8056 15.9308 13.5864 15.9308 13.3578C15.9308 13.1293 15.84 12.9101 15.6784 12.7484C15.5167 12.5868 15.2974 12.496 15.0688 12.496H9.89645C9.66782 12.496 9.44855 12.5868 9.28688 12.7484C9.12522 12.9101 9.03439 13.1293 9.03439 13.3578V40.935C9.03439 41.1635 9.12522 41.3827 9.28688 41.5444C9.44855 41.706 9.66782 41.7968 9.89645 41.7968H46.1028C46.3314 41.7968 46.5507 41.706 46.7124 41.5444C46.874 41.3827 46.9649 41.1635 46.9649 40.935V28.0082H48.689V40.935C48.7343 41.5707 48.5271 42.1986 48.1124 42.6825C47.6976 43.1665 47.1088 43.4675 46.4735 43.5203H9.52576ZM21.879 28.0082C20.9881 28.0059 20.1342 27.6511 19.5042 27.0213C18.8742 26.3915 18.5193 25.5379 18.517 24.6472V22.7513C18.517 21.8371 18.8803 20.9603 19.527 20.3138C20.1736 19.6673 21.0507 19.3041 21.9652 19.3041C22.8798 19.3041 23.7568 19.6673 24.4035 20.3138C25.0502 20.9603 25.4135 21.8371 25.4135 22.7513V24.6472C25.4128 25.1031 25.3197 25.5541 25.1396 25.973C24.9596 26.3919 24.6963 26.7698 24.3659 27.084C24.0355 27.3983 23.6447 27.6422 23.2173 27.801C22.7898 27.9599 22.3345 28.0303 21.879 28.0082ZM21.9652 29.7318C23.7943 29.7318 25.5484 30.4581 26.8418 31.7511C28.1351 33.044 28.8617 34.7976 28.8617 36.6261V40.0732H15.0688V36.6261C15.0688 34.7976 15.7954 33.044 17.0887 31.7511C18.382 30.4581 20.1362 29.7318 21.9652 29.7318Z"
    fill="#343434"
  />
<path
    d="M19 15H20C20.2652 15 20.5196 14.8946 20.7071 14.7071C20.8946 14.5196 21 14.2652 21 14C21 13.7348 20.8946 13.4804 20.7071 13.2929C20.5196 13.1054 20.2652 13 20 13H19C18.7348 13 18.4804 13.1054 18.2929 13.2929C18.1054 13.4804 18 13.7348 18 14C18 14.2652 18.1054 14.5196 18.2929 14.7071C18.4804 14.8946 18.7348 15 19 15Z"
    fill="#343434"
  />
<path
    d="M36.875 15H49.125C49.3571 15 49.5796 14.8946 49.7437 14.7071C49.9078 14.5196 50 14.2652 50 14C50 13.7348 49.9078 13.4804 49.7437 13.2929C49.5796 13.1054 49.3571 13 49.125 13H36.875C36.6429 13 36.4204 13.1054 36.2563 13.2929C36.0922 13.4804 36 13.7348 36 14C36 14.2652 36.0922 14.5196 36.2563 14.7071C36.4204 14.8946 36.6429 15 36.875 15Z"
    fill="#343434"
  />
<path
    d="M36.875 20H49.125C49.3571 20 49.5796 19.8946 49.7437 19.7071C49.9078 19.5196 50 19.2652 50 19C50 18.7348 49.9078 18.4804 49.7437 18.2929C49.5796 18.1054 49.3571 18 49.125 18H36.875C36.6429 18 36.4204 18.1054 36.2563 18.2929C36.0922 18.4804 36 18.7348 36 19C36 19.2652 36.0922 19.5196 36.2563 19.7071C36.4204 19.8946 36.6429 20 36.875 20Z"
    fill="#343434"
  />
<path
    d="M36.875 24H49.125C49.3571 24 49.5796 23.8946 49.7437 23.7071C49.9078 23.5196 50 23.2652 50 23C50 22.7348 49.9078 22.4804 49.7437 22.2929C49.5796 22.1054 49.3571 22 49.125 22H36.875C36.6429 22 36.4204 22.1054 36.2563 22.2929C36.0922 22.4804 36 22.7348 36 23C36 23.2652 36.0922 23.5196 36.2563 23.7071C36.4204 23.8946 36.6429 24 36.875 24Z"
    fill="#343434"
  />
<path
    d="M52.1086 11H47.6777C46.9725 11 46.2963 10.7198 45.7977 10.2211C45.2992 9.7224 45.0191 9.04601 45.0191 8.34073C45.0191 3.6693 44.8418 3.38564 45.5685 3.09312C46.2952 2.8006 46.0382 2.79174 52.7378 9.48421C52.8628 9.60819 52.9481 9.7666 52.9827 9.93922C53.0173 10.1119 52.9998 10.2909 52.9323 10.4535C52.8648 10.6161 52.7504 10.7549 52.6037 10.8522C52.457 10.9496 52.2847 11.001 52.1086 11ZM46.7915 6.0449V8.34073C46.7915 8.57582 46.8848 8.80128 47.051 8.96752C47.2172 9.13376 47.4426 9.22715 47.6777 9.22715H49.9729L46.7915 6.0449Z"
    fill="#343434"
  />
</svg>
