<svg width="54" height="54" viewBox="0 0 54 54" fill="none" xmlns="http://www.w3.org/2000/svg">
<path d="M14.75 19.7857H13.0714V5.51786C13.0714 4.85008 13.3367 4.20965 13.8089 3.73746C14.2811 3.26527 14.9215 3 15.5893 3H42.4464C43.1142 3 43.7546 3.26527 44.2268 3.73746C44.699 4.20965 44.9643 4.85008 44.9643 5.51786V38.25H43.2857V5.51786C43.2857 5.29526 43.1973 5.08179 43.0399 4.92439C42.8825 4.767 42.669 4.67857 42.4464 4.67857H15.5893C15.3667 4.67857 15.1532 4.767 14.9958 4.92439C14.8384 5.08179 14.75 5.29526 14.75 5.51786V19.7857ZM50 40.7679V45.8036C50 46.0262 49.9116 46.2396 49.7542 46.397C49.5968 46.5544 49.3833 46.6429 49.1607 46.6429H44.9643V47.4821C44.9643 48.1499 44.699 48.7903 44.2268 49.2625C43.7546 49.7347 43.1142 50 42.4464 50H15.5893C14.9215 50 14.2811 49.7347 13.8089 49.2625C13.3367 48.7903 13.0714 48.1499 13.0714 47.4821V46.6429H12.2321C12.0505 46.6429 11.8738 46.584 11.7286 46.475L8.37143 43.9571C8.26719 43.879 8.18259 43.7776 8.12432 43.6611C8.06605 43.5445 8.03571 43.416 8.03571 43.2857C8.03571 43.1554 8.06605 43.0269 8.12432 42.9104C8.18259 42.7938 8.26719 42.6925 8.37143 42.6143L11.7286 40.0964C11.8738 39.9875 12.0505 39.9286 12.2321 39.9286H49.1607C49.3833 39.9286 49.5968 40.017 49.7542 40.1744C49.9116 40.3318 50 40.5453 50 40.7679ZM44.9643 44.9643V41.6071H12.5091L10.2766 43.2857L12.5091 44.9643H44.9643ZM43.2857 46.6429H14.75V47.4821C14.75 47.7047 14.8384 47.9182 14.9958 48.0756C15.1532 48.233 15.3667 48.3214 15.5893 48.3214H42.4464C42.669 48.3214 42.8825 48.233 43.0399 48.0756C43.1973 47.9182 43.2857 47.7047 43.2857 47.4821V46.6429ZM48.3214 41.6071H46.6429V44.9643H48.3214V41.6071ZM19.7857 17.2679V14.75H18.9464C18.2787 14.75 17.6382 14.4847 17.166 14.0125C16.6938 13.5403 16.4286 12.8999 16.4286 12.2321C16.4286 11.5644 16.6938 10.9239 17.166 10.4517C17.6382 9.97956 18.2787 9.71429 18.9464 9.71429H19.7857C19.7857 9.49169 19.8741 9.27822 20.0315 9.12082C20.1889 8.96342 20.4024 8.875 20.625 8.875H25.4593L30.3188 6.44946C30.4465 6.38508 30.5886 6.35443 30.7316 6.36042C30.8745 6.36641 31.0135 6.40884 31.1355 6.48368C31.2574 6.55852 31.3582 6.66329 31.4282 6.78803C31.4983 6.91278 31.5353 7.05336 31.5357 7.19643V17.2679C31.536 17.4105 31.4999 17.5508 31.4309 17.6757C31.3619 17.8005 31.2622 17.9057 31.1412 17.9813C31.0077 18.064 30.8536 18.1076 30.6964 18.1071C30.565 18.1064 30.4357 18.0747 30.3188 18.0148L25.4593 15.5893H24.8214V17.2679C24.8214 17.9356 24.5562 18.5761 24.084 19.0483C23.6118 19.5204 22.9713 19.7857 22.3036 19.7857C21.6358 19.7857 20.9954 19.5204 20.5232 19.0483C20.051 18.5761 19.7857 17.9356 19.7857 17.2679ZM23.1429 15.5893H21.4643V17.2679C21.4643 17.4904 21.5527 17.7039 21.7101 17.8613C21.8675 18.0187 22.081 18.1071 22.3036 18.1071C22.5262 18.1071 22.7396 18.0187 22.897 17.8613C23.0544 17.7039 23.1429 17.4904 23.1429 17.2679V15.5893ZM29.8571 8.55607L26.5 10.2346V14.2296L29.8571 15.9082V8.55607ZM21.4643 10.5536V13.9107H24.8214V10.5536H21.4643ZM19.7857 13.0714V11.3929H18.9464C18.7238 11.3929 18.5104 11.4813 18.353 11.6387C18.1956 11.7961 18.1071 12.0096 18.1071 12.2321C18.1071 12.4547 18.1956 12.6682 18.353 12.8256C18.5104 12.983 18.7238 13.0714 18.9464 13.0714H19.7857ZM40.2559 7.12929L39.6012 5.585L33.7263 8.10286L34.3809 9.64714L40.2559 7.12929ZM41.6071 11.3929H34.8929V13.0714H41.6071V11.3929ZM39.6012 18.8793L40.2559 17.335L34.3809 14.8171L33.7263 16.3614L39.6012 18.8793ZM22.3036 38.25H5.51786C4.85008 38.25 4.20965 37.9847 3.73746 37.5125C3.26527 37.0403 3 36.3999 3 35.7321V23.9821C3 23.3144 3.26527 22.6739 3.73746 22.2017C4.20965 21.7296 4.85008 21.4643 5.51786 21.4643H22.3036C22.9713 21.4643 23.6118 21.7296 24.084 22.2017C24.5562 22.6739 24.8214 23.3144 24.8214 23.9821V35.7321C24.8214 36.3999 24.5562 37.0403 24.084 37.5125C23.6118 37.9847 22.9713 38.25 22.3036 38.25ZM5.51786 36.5714H22.3036C22.5262 36.5714 22.7396 36.483 22.897 36.3256C23.0544 36.1682 23.1429 35.9547 23.1429 35.7321V23.9821C23.1429 23.7596 23.0544 23.5461 22.897 23.3887C22.7396 23.2313 22.5262 23.1429 22.3036 23.1429H5.51786C5.29526 23.1429 5.08179 23.2313 4.92439 23.3887C4.767 23.5461 4.67857 23.7596 4.67857 23.9821V35.7321C4.67857 35.9547 4.767 36.1682 4.92439 36.3256C5.08179 36.483 5.29526 36.5714 5.51786 36.5714ZM10.5536 30.6964V25.6607C10.554 25.5176 10.591 25.3771 10.6611 25.2523C10.7311 25.1276 10.8319 25.0228 10.9538 24.948C11.0757 24.8731 11.2148 24.8307 11.3577 24.8247C11.5007 24.8187 11.6428 24.8494 11.7705 24.9138L16.8063 27.4316C16.9437 27.502 17.0591 27.609 17.1397 27.7408C17.2202 27.8726 17.2629 28.0241 17.2629 28.1786C17.2629 28.333 17.2202 28.4845 17.1397 28.6163C17.0591 28.7481 16.9437 28.8551 16.8063 28.9255L11.7705 31.4434C11.6536 31.5033 11.5242 31.5349 11.3929 31.5357C11.2357 31.5362 11.0816 31.4926 10.948 31.4098C10.8271 31.3342 10.7274 31.2291 10.6584 31.1042C10.5894 30.9794 10.5533 30.8391 10.5536 30.6964ZM12.2321 29.3368L14.5486 28.1786L12.2321 27.0204V29.3368ZM6.35714 34.8929H18.1071V33.2143H6.35714V34.8929ZM19.7857 34.8929H21.4643V33.2143H19.7857V34.8929ZM41.6071 29.0179H26.5V30.6964H41.6071V29.0179ZM41.6071 32.375H26.5V34.0536H41.6071V32.375ZM28.1786 35.7321H26.5V37.4107H28.1786V35.7321ZM31.5357 37.4107V35.7321H29.8571V37.4107H31.5357ZM34.8929 37.4107V35.7321H33.2143V37.4107H34.8929ZM38.25 37.4107V35.7321H36.5714V37.4107H38.25ZM41.6071 37.4107V35.7321H39.9286V37.4107H41.6071ZM41.6071 26.5C41.6071 26.7226 41.5187 26.9361 41.3613 27.0935C41.2039 27.2509 40.9905 27.3393 40.7679 27.3393H27.3393C27.1167 27.3393 26.9032 27.2509 26.7458 27.0935C26.5884 26.9361 26.5 26.7226 26.5 26.5V23.1429C26.5 22.9203 26.5884 22.7068 26.7458 22.5494C26.9032 22.392 27.1167 22.3036 27.3393 22.3036H40.7679C40.9905 22.3036 41.2039 22.392 41.3613 22.5494C41.5187 22.7068 41.6071 22.9203 41.6071 23.1429V26.5ZM39.9286 23.9821H28.1786V25.6607H39.9286V23.9821Z" fill="#343434"/>
</svg>
