<svg width="37" height="48" viewBox="0 0 37 48" fill="none" xmlns="http://www.w3.org/2000/svg">
<path d="M13.706 5H17.294C17.6839 5 18 4.55225 18 4C18 3.44775 17.6839 3 17.294 3H13.706C13.3161 3 13 3.44775 13 4C13 4.55225 13.3161 5 13.706 5Z" fill="#343434"/>
<path d="M10.7229 44H17.2771C17.6763 44 18 43.7761 18 43.5C18 43.2239 17.6763 43 17.2771 43H10.7229C10.3237 43 10 43.2239 10 43.5C10 43.7761 10.3237 44 10.7229 44Z" fill="#343434"/>
<path d="M0.732686 37C1.13731 37 1.46537 36.6662 1.46537 36.2545V7.0818H25.5313V10.9164C25.5313 11.3281 25.8594 11.6619 26.264 11.6619C26.6686 11.6619 26.9967 11.3281 26.9967 10.9164C26.9971 10.0196 26.9955 13.6677 27 2.96689C27 1.33486 25.6882 0 24.0785 0H24.0766H2.91822H2.91661C1.38506 0 0 1.28169 0 2.96907V36.2545C0 36.6662 0.328067 37 0.732686 37ZM24.0766 1.49091C24.8507 1.49091 25.5313 2.13569 25.5313 2.96907V5.59089H1.46586V2.96689C1.46586 2.15387 2.12035 1.49091 2.91822 1.49091H24.0766Z" fill="#343434"/>
<path d="M18.2398 18.778C18.5546 19.074 19.0674 19.0757 19.384 18.7728L22.7656 15.5392C23.0781 15.2405 23.0781 14.7592 22.7656 14.4605L19.384 11.2269C19.0695 10.926 18.5575 10.9245 18.2398 11.2217C17.9222 11.5196 17.9198 12.0051 18.2343 12.3057L21.0517 14.9999L18.2343 17.6941C17.9198 17.9946 17.9222 18.4801 18.2398 18.778Z" fill="#343434"/>
<path d="M9.76015 11.2225C9.44286 10.9238 8.92999 10.9261 8.61587 11.2277L5.23441 14.461C4.92186 14.7596 4.92186 15.2409 5.23441 15.5396L8.61587 18.7728C8.93018 19.0735 9.44223 19.0762 9.76015 18.7781C10.0778 18.4802 10.0802 17.9947 9.76568 17.6942L6.94845 15.0003L9.76568 12.3064C10.0802 12.0058 10.0778 11.5204 9.76015 11.2225Z" fill="#343434"/>
<path d="M14.5291 9.48991L10.0541 20.9385C9.89853 21.3363 10.0899 21.787 10.4811 21.9448C10.8702 22.1028 11.3148 21.9104 11.4709 21.5107L15.9459 10.0622C16.1015 9.66439 15.9101 9.21363 15.5189 9.05581C15.1262 8.89573 14.6843 9.09215 14.5291 9.48991Z" fill="#343434"/>
<path d="M27.0038 23C24.7945 23 23 24.7928 23 27C23 29.2279 24.8182 31 27.0038 31C29.1798 31 31 29.2316 31 27C31 24.7928 29.2055 23 27.0038 23ZM27.7578 29.3729V26.5028C27.7578 26.0885 27.4185 25.7495 27.0038 25.7495C26.5815 25.7495 26.2498 26.0885 26.2498 26.5028V29.3804C25.2394 29.0641 24.508 28.1149 24.508 27C24.508 25.629 25.6239 24.5066 27.0038 24.5066C28.3761 24.5066 29.492 25.629 29.492 27C29.492 28.1149 28.7606 29.0565 27.7578 29.3729Z" fill="#343434"/>
<path d="M36.3373 24.9797L34.5056 24.7705C34.3641 24.3372 34.1854 23.9113 33.9695 23.5004L35.0417 21.9761C35.2576 21.6848 35.2204 21.2738 34.9672 21.0198L32.8302 18.8829C32.5621 18.6139 32.1377 18.584 31.8398 18.8231L30.4027 19.9812C29.9932 19.772 29.5687 19.6001 29.1294 19.4656L28.8241 17.6202C28.7645 17.2615 28.4518 17 28.087 17H25.0713C24.6915 17 24.3713 17.2839 24.3267 17.665L24.1256 19.5105C23.6863 19.6524 23.2693 19.8318 22.8672 20.041L21.3407 18.9576C21.0429 18.7483 20.6408 18.7783 20.3876 19.0398L18.258 21.1766C17.99 21.4457 17.9676 21.8716 18.2059 22.1704L19.3526 23.6199C19.1441 24.0308 18.9729 24.4567 18.8388 24.8976L17.0071 25.2039C16.6497 25.2712 16.3816 25.5775 16.3816 25.9436V28.9696C16.3816 29.3507 16.672 29.6645 17.0443 29.7093L18.8761 29.9185C19.0175 30.3594 19.2037 30.7853 19.4122 31.1887L18.3399 32.7055C18.1314 33.0043 18.1612 33.4078 18.4219 33.6693L20.5514 35.8062C20.8195 36.0752 21.2439 36.0976 21.5418 35.8585L22.9864 34.7079C23.3959 34.9096 23.8129 35.0815 24.2522 35.216L24.5575 37.0614C24.617 37.4276 24.9298 37.6891 25.2946 37.6891H25.9499V39.3403H0.744617C0.335085 39.3403 0 39.6765 0 40.0875C0 40.2032 0 45.2141 0 45.0262C0 46.6625 1.33289 48 2.9636 48H24.4681C26.1063 48 27.4391 46.6625 27.4391 45.0262C27.4391 44.6609 27.4391 37.3276 27.4391 37.6891H28.3103C28.6901 37.6891 29.0103 37.4052 29.0549 37.0241L29.2635 35.1786C29.6953 35.0367 30.1197 34.8573 30.5219 34.6481L32.0409 35.7315C32.3387 35.9407 32.7408 35.9033 33.0014 35.6493L35.1236 33.5049C35.3917 33.2359 35.414 32.8101 35.1757 32.5187L34.029 31.0692C34.2375 30.6508 34.4087 30.2249 34.5428 29.7915L36.3745 29.4777C36.7319 29.4179 37 29.1041 37 28.7455V25.7194C37 25.3384 36.717 25.0171 36.3373 24.9797ZM25.9499 45.0262C25.9499 45.8407 25.2872 46.5057 24.4681 46.5057H2.96361C2.15196 46.5057 1.48924 45.8407 1.48924 45.0262C1.48924 44.8658 1.48924 40.7579 1.48924 40.8346H25.9499V45.0262H25.9499ZM35.5108 28.1104L33.828 28.3943C33.5301 28.4466 33.2993 28.6633 33.2248 28.9622C33.0759 29.5898 32.8302 30.195 32.5025 30.7703C32.3462 31.0318 32.3685 31.368 32.5621 31.6071L33.5971 32.9221L32.3908 34.1475L30.991 33.1463C30.7527 32.9745 30.4251 32.967 30.1719 33.1239C29.6283 33.4601 29.0326 33.7141 28.3997 33.8711C28.0944 33.9458 27.871 34.2073 27.8338 34.5136L27.6476 36.1948C27.0203 36.1948 26.5478 36.1948 25.9201 36.1948L25.6372 34.4987C25.5925 34.2073 25.3691 33.9682 25.0787 33.9009C24.4532 33.744 23.8501 33.4975 23.2916 33.1687C23.0236 33.0118 22.6885 33.0342 22.4502 33.2285L21.1322 34.2745L19.9185 33.0566L20.9014 31.6744C21.0597 31.4493 21.0879 31.1172 20.9312 30.8376C20.5961 30.2921 20.3355 29.6869 20.1717 29.0443C20.0972 28.7455 19.8441 28.5213 19.5388 28.4914L17.8708 28.2972V26.5787L19.5536 26.2948C19.8515 26.2425 20.0898 26.0183 20.1568 25.7269C20.3057 25.0918 20.5514 24.4866 20.8865 23.9337C21.0429 23.6647 21.028 23.3285 20.8344 23.082L19.7845 21.7595L20.9982 20.5416L22.3906 21.5353C22.6289 21.7072 22.9565 21.7221 23.2097 21.5652C23.7533 21.229 24.3564 20.9749 24.9968 20.8105C25.2946 20.7358 25.5106 20.4818 25.5478 20.1755L25.7339 18.4943H27.4615L27.7444 20.1829C27.7966 20.4818 28.0125 20.7209 28.3029 20.7882C28.9358 20.9376 29.539 21.1841 30.0974 21.5204C30.3655 21.6773 30.7006 21.6548 30.9389 21.4606L32.2493 20.4071L33.4631 21.6324L32.4802 23.0222C32.3239 23.2442 32.2919 23.5687 32.4504 23.8515C32.7929 24.4119 33.0461 25.0171 33.2025 25.6373C33.2769 25.9361 33.5301 26.1603 33.8428 26.1976L35.5108 26.3844V28.1104H35.5108Z" fill="#343434"/>
</svg>
