<svg width="53" height="52" viewBox="0 0 53 52" fill="none" xmlns="http://www.w3.org/2000/svg">
<path d="M24.7353 38C24.3291 38 24 38.4477 24 39C24 39.5523 24.3291 40 24.7353 40H28.2647C28.6709 40 29 39.5523 29 39C29 38.4477 28.6709 38 28.2647 38H24.7353Z" fill="#343434"/>
<path d="M9.79179 25.7143H15.0256C15.3453 26.4649 16.1507 27 17.0939 27C18.037 27 18.8424 26.4649 19.1621 25.7143H20.2082C20.6456 25.7143 21 25.3945 21 25C21 24.6055 20.6456 24.2857 20.2082 24.2857H19.1621C18.8424 23.5351 18.037 23 17.0939 23C16.1507 23 15.3453 23.5351 15.0256 24.2857H9.79179C9.3544 24.2857 9 24.6055 9 25C9 25.3945 9.3544 25.7143 9.79179 25.7143ZM17.0939 24.4286C17.4432 24.4286 17.7273 24.6849 17.7273 25C17.7273 25.3151 17.4432 25.5714 17.0939 25.5714C16.7445 25.5714 16.4604 25.3151 16.4604 25C16.4604 24.6849 16.7445 24.4286 17.0939 24.4286Z" fill="#343434"/>
<path d="M9.79179 21.7143H10.8027C11.1224 22.4649 11.9278 23 12.871 23C13.8142 23 14.6196 22.4649 14.9392 21.7143H20.2082C20.6456 21.7143 21 21.3945 21 21C21 20.6055 20.6456 20.2857 20.2082 20.2857H14.9392C14.6196 19.5351 13.8142 19 12.871 19C11.9278 19 11.1224 19.5351 10.8027 20.2857H9.79179C9.3544 20.2857 9 20.6055 9 21C9 21.3945 9.3544 21.7143 9.79179 21.7143ZM12.871 20.4286C13.2203 20.4286 13.5044 20.6849 13.5044 21C13.5044 21.3151 13.2203 21.5714 12.871 21.5714C12.5217 21.5714 12.2376 21.3151 12.2376 21C12.2376 20.6849 12.5217 20.4286 12.871 20.4286Z" fill="#343434"/>
<path d="M20 15C20.5523 15 21 14.5523 21 14C21 13.4477 20.5523 13 20 13C19.4477 13 19 13.4477 19 14C19 14.5523 19.4477 15 20 15Z" fill="#343434"/>
<path d="M18 15C18.5523 15 19 14.5523 19 14C19 13.4477 18.5523 13 18 13C17.4477 13 17 13.4477 17 14C17 14.5523 17.4477 15 18 15Z" fill="#343434"/>
<path d="M16 15C16.5523 15 17 14.5523 17 14C17 13.4477 16.5523 13 16 13C15.4477 13 15 13.4477 15 14C15 14.5523 15.4477 15 16 15Z" fill="#343434"/>
<path d="M50.6709 4.75343H50.3801L50.597 4.53684C51.2466 3.88813 51.2466 2.8325 50.597 2.18378L48.8975 0.486462C48.2479 -0.162154 47.191 -0.162154 46.5413 0.486462L42.2692 4.75332H2.3291C1.04489 4.75332 0 5.79675 0 7.07941V39.279C0 40.8467 1.27697 42.122 2.84668 42.122H21.2357V47.6069H17.4941C16.4953 47.6069 15.6826 48.4186 15.6826 49.4161V50.1908C15.6826 51.1884 16.4953 52 17.4941 52H35.5059C36.5047 52 37.3174 51.1884 37.3174 50.1908V49.4161C37.3174 48.4186 36.5047 47.6069 35.5059 47.6069H31.7643V42.122H40.0605C40.4894 42.122 40.8369 41.7748 40.8369 41.3466C40.8369 40.9184 40.4894 40.5713 40.0605 40.5713H2.84668C2.13315 40.5713 1.55273 39.9916 1.55273 39.279V36.9839H51.4473V39.279C51.4473 39.9916 50.8669 40.5713 50.1533 40.5713H43.6836C43.2547 40.5713 42.9072 40.9184 42.9072 41.3466C42.9072 41.7748 43.2547 42.122 43.6836 42.122H50.1533C51.723 42.122 53 40.8467 53 39.279V7.07951C53 5.79696 51.9551 4.75343 50.6709 4.75343ZM35.5059 49.1577C35.6486 49.1577 35.7646 49.2737 35.7646 49.4162V50.1909C35.7646 50.3334 35.6486 50.4494 35.5059 50.4494H17.4941C17.3514 50.4494 17.2354 50.3334 17.2354 50.1909V49.4162C17.2354 49.2737 17.3514 49.1577 17.4941 49.1577H35.5059ZM22.7884 42.1222H30.2117V47.6071H22.7884V42.1222ZM47.6393 1.58313C47.6836 1.53899 47.7555 1.53909 47.7996 1.58313L49.499 3.28035C49.5432 3.32449 49.5432 3.39634 49.499 3.44038L47.8774 5.05985L46.0178 3.2026L47.6393 1.58313ZM44.9198 4.29917L46.7793 6.15642L46.2378 6.69721L44.3783 4.83996L44.9198 4.29917ZM43.2803 5.93653L45.14 7.79377L35.9528 16.969L34.0932 15.1117L43.2803 5.93653ZM42.1309 13.0253C43.1868 13.0253 44.0459 13.8833 44.0459 14.9378C44.0459 15.9924 43.1868 16.8504 42.1309 16.8504C41.0749 16.8504 40.2158 15.9924 40.2158 14.9378C40.2158 14.9255 40.2175 14.9137 40.2177 14.9014L42.0946 13.0272C42.1067 13.0269 42.1186 13.0253 42.1309 13.0253ZM34.6047 17.8157L32.3069 18.7529L33.2454 16.4582L34.6047 17.8157ZM51.4473 35.4334H1.55273V7.07951C1.55273 6.65203 1.90096 6.30415 2.3291 6.30415H40.7165L39.5327 7.48642H13.1465C12.7176 7.48642 12.3701 7.83358 12.3701 8.26178C12.3701 8.68999 12.7176 9.03714 13.1465 9.03714H37.9801L32.504 14.5064C32.3493 14.6623 32.2282 14.8443 32.1449 15.0479L30.4107 19.2882C30.2516 19.6777 30.3413 20.1215 30.6391 20.4188C30.839 20.6185 31.1048 20.7243 31.3759 20.7243C31.5088 20.7243 31.6429 20.6989 31.7711 20.6467L36.0168 18.9148C36.2149 18.834 36.3922 18.717 36.5454 18.5686L38.9072 16.2102C39.416 17.492 40.6685 18.4012 42.131 18.4012C44.0431 18.4012 45.5987 16.8476 45.5987 14.938C45.5987 13.4776 44.6885 12.2268 43.4052 11.7185L46.0903 9.03725H48.7107V32.7005H48.2993L45.4857 27.8337C45.2714 27.4627 44.7963 27.3357 44.4252 27.5499C44.0539 27.764 43.9266 28.2382 44.141 28.609L46.5064 32.7005H35.661L34.4978 30.6884L39.9205 21.3083L42.3294 25.4754C42.5439 25.8462 43.0187 25.9734 43.3899 25.7592C43.7612 25.5451 43.8885 25.0709 43.6741 24.7001L41.1041 20.2545C40.857 19.8272 40.4146 19.572 39.9204 19.572C39.4262 19.572 38.9837 19.8272 38.7366 20.2545L33.6012 29.1378L27.012 17.7399C26.7649 17.3125 26.3225 17.0574 25.8282 17.0574C25.3341 17.0574 24.8916 17.3125 24.6445 17.7399L22.8939 20.768V12.4569C22.8939 11.4594 22.0812 10.6477 21.0824 10.6477H7.76367C6.76485 10.6477 5.95215 11.4594 5.95215 12.4569V29.4115C5.95215 30.1241 6.53256 30.7037 7.24609 30.7037H17.1504L15.996 32.7006H4.28938V9.03714H9.52344C9.9523 9.03714 10.2998 8.68999 10.2998 8.26178C10.2998 7.83358 9.9523 7.48642 9.52344 7.48642H4.03059C3.31705 7.48642 2.73664 8.06608 2.73664 8.77869V32.9589C2.73664 33.6715 3.31705 34.2512 4.03059 34.2512H48.9695C49.683 34.2512 50.2635 33.6715 50.2635 32.9589V8.77869C50.2635 8.06608 49.683 7.48642 48.9695 7.48642H47.6433L48.8273 6.30415H50.6709C51.099 6.30415 51.4473 6.65203 51.4473 7.07951V35.4334ZM21.3415 16.751V29.1528H7.50488V16.751H21.3415ZM7.50488 15.2002V12.4567C7.50488 12.3142 7.62092 12.1982 7.76367 12.1982H21.0827C21.2255 12.1982 21.3415 12.3142 21.3415 12.4567V15.2002H7.50488ZM18.9434 30.7035H21.6003C22.3138 30.7035 22.8942 30.1239 22.8942 29.4113V27.7688C23.0884 27.8619 23.3047 27.9122 23.5312 27.9122C24.0612 27.9122 24.5357 27.6385 24.8006 27.1802L26.1219 24.8947C26.1618 24.8257 26.2229 24.8111 26.2669 24.8111C26.3111 24.8111 26.3722 24.8257 26.412 24.8947L27.2266 26.3037C27.4916 26.7622 27.9662 27.0359 28.4963 27.0359C29.0263 27.0359 29.5009 26.7622 29.7658 26.3038L29.9681 25.954L33.8681 32.7003H17.789L18.9434 30.7035ZM22.8942 25.1733V23.8693L25.8286 18.7936L29.0715 24.4032L28.4962 25.3984L27.7567 24.1193C27.4457 23.5814 26.8888 23.2603 26.2668 23.2603C25.6449 23.2603 25.0879 23.5814 24.777 24.1193L23.5309 26.2748L22.8942 25.1733Z" fill="#343434"/>
</svg>
