<svg width="52" height="52" viewBox="0 0 52 52" fill="none" xmlns="http://www.w3.org/2000/svg">
<path d="M9.49855 6C7.56944 6 6 7.57017 6 9.5C6 11.4298 7.56944 13 9.49855 13C11.4292 13 13 11.4298 13 9.5C13 7.57017 11.4292 6 9.49855 6ZM9.49855 10.9126C8.71952 10.9126 8.08579 10.2789 8.08579 9.5C8.08579 8.72107 8.71952 8.08746 9.49855 8.08746C10.2791 8.08746 10.9143 8.72118 10.9143 9.5001C10.9143 10.279 10.2791 10.9126 9.49855 10.9126Z" fill="#343434"/>
<path d="M39.5543 6H30.4457C28.5457 6 27 7.57017 27 9.5C27 11.4298 28.5457 13 30.4457 13H39.5543C41.4543 13 43 11.4298 43 9.5C43 7.57017 41.4543 6 39.5543 6ZM39.5543 10.9126H30.4457C29.6784 10.9126 29.0543 10.2789 29.0543 9.5C29.0543 8.72107 29.6785 8.08735 30.4457 8.08735H39.5543C40.3216 8.08735 40.9457 8.72107 40.9457 9.5C40.9457 10.2789 40.3216 10.9126 39.5543 10.9126Z" fill="#343434"/>
<path d="M18.4986 6C16.5694 6 15 7.57017 15 9.5C15 11.4298 16.5694 13 18.4986 13C20.4292 13 22 11.4298 22 9.5C22 7.57017 20.4292 6 18.4986 6ZM18.4986 10.9126C17.7195 10.9126 17.0858 10.2789 17.0858 9.5C17.0858 8.72107 17.7196 8.08735 18.4986 8.08735C19.2791 8.08735 19.9143 8.72107 19.9143 9.5C19.9143 10.2789 19.2791 10.9126 18.4986 10.9126Z" fill="#343434"/>
<path d="M16.2292 23.0296C15.6901 22.8923 15.1482 23.2462 15.0194 23.8199L13.0277 32.6838C12.8989 33.2574 13.2315 33.8335 13.7708 33.9705C13.8492 33.9904 13.9278 34 14.005 34C14.4589 34 14.8705 33.6703 14.9806 33.1802L16.9723 24.3162C17.1012 23.7427 16.7685 23.1667 16.2292 23.0296Z" fill="#343434"/>
<path d="M20.3419 31.741C20.5364 31.9146 20.779 32 21.0205 32C21.3015 32 21.5814 31.8844 21.7831 31.6576L24.6454 28.439C25.1177 27.9124 25.1177 27.0876 24.6484 26.5643L21.783 23.3424C21.4079 22.9206 20.7627 22.8835 20.3419 23.259C19.9208 23.6346 19.8836 24.281 20.2586 24.7026L22.7462 27.4999L20.2586 30.2973C19.8837 30.7191 19.9209 31.3655 20.3419 31.741Z" fill="#343434"/>
<path d="M10.6579 23.2589C10.2369 22.8833 9.59185 22.9209 9.21685 23.3424L6.35506 26.5607C5.88219 27.0874 5.88219 27.9126 6.35182 28.4356L9.21695 31.6576C9.41867 31.8845 9.69842 32 9.97959 32C10.2211 32 10.4637 31.9146 10.6581 31.741C11.0792 31.3654 11.1164 30.719 10.7414 30.2974L8.25391 27.5001L10.7414 24.7027C11.1162 24.2809 11.079 23.6345 10.6579 23.2589Z" fill="#343434"/>
<path d="M49.704 34.5586H49.3237C49.1246 33.9078 48.8665 33.2795 48.5516 32.6791L48.823 32.4044C49.2564 31.9699 49.4956 31.3897 49.4965 30.7706C49.4974 30.1502 49.259 29.5676 48.8251 29.13L48.2964 28.5969V6.58897C48.2964 3.50714 46.1406 1 43.4907 1H4.80575C2.15577 1 0 3.50714 0 6.58897V35.467C0 38.5488 2.15577 41.056 4.80575 41.056H10.8148C11.3804 41.056 11.839 40.5934 11.839 40.0228C11.839 39.4522 11.3804 38.9896 10.8148 38.9896H4.80575C3.31115 38.9896 2.04842 37.3764 2.04842 35.4671V16.722H46.2479V27.163C46.1312 27.1449 46.013 27.133 45.8926 27.133C45.8914 27.133 45.8902 27.133 45.8891 27.133C45.2754 27.134 44.7003 27.375 44.2729 27.8085L43.996 28.0866C43.3884 27.7627 42.7555 27.4993 42.103 27.2981V26.9301C42.103 25.6531 41.0729 24.6143 39.8068 24.6143H37.9533C36.6888 24.6143 35.6601 25.6531 35.6601 26.9301V27.3233C35.0198 27.5263 34.4016 27.7875 33.8107 28.1047L33.5454 27.8379C33.1146 27.4011 32.5393 27.1599 31.9257 27.159C31.9246 27.159 31.9235 27.159 31.9222 27.159C31.3085 27.159 30.7322 27.3993 30.2993 27.8357L28.9898 29.1561C28.5559 29.5936 28.3176 30.1763 28.3185 30.7967C28.3194 31.4157 28.5585 31.9959 28.9886 32.4271L29.2714 32.7132C28.9644 33.3044 28.7122 33.9211 28.5171 34.5584H28.1282C26.8635 34.5584 25.8348 35.5959 25.8348 36.8713V38.7429C25.8348 38.8261 25.8393 38.9082 25.8479 38.9892H19.8887C19.3231 38.9892 18.8645 39.4518 18.8645 40.0224C18.8645 40.593 19.3231 41.0555 19.8887 41.0555H28.128H28.521C28.719 41.6989 28.9751 42.3205 29.2874 42.9156L29.0106 43.1935C28.1196 44.0972 28.1204 45.5643 29.0128 46.4638L30.3229 47.785C30.7538 48.2218 31.329 48.4629 31.9426 48.4639H31.946C32.5598 48.4639 33.1361 48.2236 33.5691 47.787L33.8434 47.5105C34.4386 47.827 35.0574 48.0856 35.6944 48.2843V48.6841C35.6944 49.9612 36.7231 51 37.9878 51H39.844C41.1086 51 42.1373 49.9612 42.1373 48.6841V48.2867C42.7803 48.0866 43.4017 47.827 43.9961 47.5104L44.2692 47.7849C44.7 48.2218 45.2751 48.4628 45.8888 48.4639H45.8923C46.5061 48.4639 47.0823 48.2236 47.5161 47.7863L48.8227 46.4659C49.2561 46.0314 49.4953 45.4512 49.4962 44.8321C49.4971 44.2117 49.2587 43.6291 48.8247 43.1915L48.5514 42.9159C48.8631 42.3203 49.119 41.6983 49.3167 41.0557H49.7038C50.97 41.0557 52 40.0182 52 38.7429V36.8713C52.0002 35.5961 50.9702 34.5586 49.704 34.5586ZM2.04842 14.6556V6.58897C2.04842 4.67967 3.31115 3.06647 4.80575 3.06647H43.4907C44.9853 3.06647 46.248 4.67967 46.248 6.58897V14.6557H2.04842V14.6556ZM49.9518 38.7431C49.9518 38.8743 49.836 38.9894 49.7039 38.9894H48.5326C48.0551 38.9894 47.6409 39.3223 47.5343 39.7918C47.3131 40.7657 46.9331 41.6893 46.4049 42.5371C46.1505 42.9454 46.2099 43.4769 46.5481 43.8178L47.3769 44.6534C47.4388 44.7159 47.448 44.7904 47.448 44.8294C47.4479 44.8759 47.4359 44.9434 47.376 45.0032L46.0675 46.3257C46.0055 46.3882 45.9314 46.3976 45.8924 46.3976C45.8923 46.3976 45.8922 46.3976 45.8922 46.3976C45.8457 46.3976 45.7786 46.3854 45.7185 46.3244L44.8867 45.4888C44.5484 45.1489 44.0225 45.09 43.6186 45.3462C42.777 45.8803 41.8576 46.2642 40.886 46.4872C40.4199 46.5944 40.0891 47.0124 40.0891 47.4948V48.6845C40.0891 48.8172 39.9747 48.9338 39.8442 48.9338H37.988C37.8575 48.9338 37.743 48.8173 37.743 48.6845V47.4918C37.743 47.0091 37.4115 46.5905 36.9447 46.4841C35.9855 46.2652 35.0677 45.8819 34.2173 45.345C34.0497 45.2392 33.8614 45.1876 33.6742 45.1876C33.4096 45.1876 33.1474 45.2907 32.9499 45.4901L32.1212 46.3257C32.0591 46.3882 31.9851 46.3976 31.9461 46.3976C31.946 46.3976 31.9459 46.3976 31.9458 46.3976C31.8994 46.3976 31.8321 46.3854 31.7733 46.3258L30.4611 45.0025C30.3691 44.9099 30.3702 44.7458 30.4598 44.6548L31.2915 43.8191C31.6314 43.4778 31.6908 42.9444 31.4347 42.5353C30.9057 41.6903 30.5252 40.7673 30.3038 39.7921C30.1972 39.3226 29.783 38.9896 29.3054 38.9896H28.1283C27.9955 38.9896 27.8833 38.8768 27.8833 38.7433V36.8717C27.8833 36.7382 27.9955 36.6253 28.1283 36.6253H29.3024C29.7805 36.6253 30.1951 36.2916 30.3012 35.8214C30.5198 34.8525 30.8953 33.9333 31.4175 33.0893C31.6695 32.6818 31.61 32.1528 31.2738 31.8126L30.4359 30.9649C30.379 30.9079 30.367 30.8404 30.3669 30.7939C30.3669 30.755 30.376 30.6804 30.438 30.618L31.7473 29.2977C31.8094 29.2352 31.8834 29.2258 31.9224 29.2258H31.9227C31.9692 29.2259 32.0364 29.238 32.0964 29.2989L32.9223 30.1288C33.2617 30.4697 33.7895 30.5281 34.1935 30.2695C35.0304 29.7343 35.947 29.3466 36.9177 29.1174C37.3808 29.0081 37.7084 28.5913 37.7084 28.1113V26.9304C37.7084 26.7953 37.8205 26.681 37.9532 26.681H39.8067C39.941 26.681 40.0546 26.7953 40.0546 26.9304V28.0939C40.0546 28.578 40.3877 28.9972 40.8562 29.1024C41.8307 29.3214 42.7604 29.708 43.6195 30.2518C44.0233 30.5071 44.5486 30.4481 44.8866 30.1086L45.7218 29.2694C45.7785 29.2119 45.8456 29.1999 45.892 29.1998H45.8923C45.9313 29.1998 46.0054 29.2092 46.0673 29.2717L47.3768 30.5919C47.4387 30.6543 47.4479 30.7289 47.4479 30.7679C47.4478 30.8144 47.4358 30.8819 47.3755 30.9423L46.5467 31.7809C46.2092 32.1224 46.1507 32.6539 46.4057 33.0617C46.936 33.9097 47.3174 34.8384 47.5397 35.8218C47.6459 36.2919 48.0603 36.6254 48.5383 36.6254H49.7039C49.8359 36.6254 49.9518 36.7406 49.9518 36.8718V38.7431Z" fill="#343434"/>
<path d="M39.5015 31C35.9165 31 33 33.9165 33 37.5015C33 41.0847 35.9165 44 39.5015 44C43.0848 44 46 41.0848 46 37.5015C46 33.9166 43.0848 31 39.5015 31ZM39.5015 41.8713C37.0899 41.8713 35.1277 39.911 35.1277 37.5015C35.1277 35.0903 37.0899 33.1287 39.5015 33.1287C41.9115 33.1287 43.8723 35.0903 43.8723 37.5015C43.8723 39.911 41.9114 41.8713 39.5015 41.8713Z" fill="#343434"/>
<path d="M15.0097 39H14.9903C14.4434 39 14 39.4477 14 40C14 40.5523 14.4434 41 14.9903 41H15.0097C15.5566 41 16 40.5523 16 40C16 39.4477 15.5566 39 15.0097 39Z" fill="#343434"/>
</svg>
