<svg width="49" height="49" viewBox="0 0 49 49" fill="none" xmlns="http://www.w3.org/2000/svg">
<path d="M42.3691 41.2515C46.6456 36.694 49 30.7705 49 24.5C49 18.0288 46.4743 12.14 42.3614 7.7562L44.0327 6.08487C44.3418 6.23344 44.6833 6.32258 45.0484 6.32258C46.3554 6.32258 47.4194 5.25866 47.4194 3.95161C47.4194 2.64457 46.3554 1.58065 45.0484 1.58065C43.7413 1.58065 42.6774 2.64457 42.6774 3.95161C42.6774 4.31667 42.7666 4.6582 42.9151 4.9673L41.2438 6.63863C36.86 2.52571 30.9712 0 24.5 0C19.7399 0 15.1377 1.37033 11.1672 3.95161H3.16129C1.4178 3.95161 0 5.36941 0 7.1129V41.8871C0 43.6306 1.4178 45.0484 3.16129 45.0484H11.1571C15.1284 47.6328 19.7407 49 24.5 49C29.2049 49 33.7539 47.6578 37.6935 45.1337L40.6731 48.1132C41.2453 48.6855 42.0048 49 42.8125 49C44.4819 49 45.8387 47.6432 45.8387 45.9738C45.8387 45.1661 45.5242 44.4059 44.9519 43.8343L42.3691 41.2515ZM45.0484 3.16129C45.4837 3.16129 45.8387 3.51632 45.8387 3.95161C45.8387 4.38691 45.4837 4.74194 45.0484 4.74194C44.6131 4.74194 44.2581 4.38691 44.2581 3.95161C44.2581 3.51632 44.6131 3.16129 45.0484 3.16129ZM24.5 1.58065C30.5351 1.58065 36.0291 3.92962 40.127 7.75543L38.1616 9.72081C37.8517 9.57301 37.5102 9.48387 37.1452 9.48387C36.6323 9.48387 36.1603 9.65135 35.7725 9.92881L31.518 6.95083C31.5735 6.74939 31.6129 6.54139 31.6129 6.32258C31.6129 5.01554 30.549 3.95161 29.2419 3.95161C27.9349 3.95161 26.871 5.01554 26.871 6.32258C26.871 7.62962 27.9349 8.69355 29.2419 8.69355C29.7548 8.69355 30.2268 8.52607 30.6146 8.24861L34.8691 11.2266C34.8136 11.428 34.7742 11.636 34.7742 11.8548C34.7742 13.1619 35.8381 14.2258 37.1452 14.2258C38.4522 14.2258 39.5161 13.1619 39.5161 11.8548C39.5161 11.4898 39.427 11.1483 39.2784 10.8392L41.2438 8.87376C45.0704 12.9709 47.4194 18.4649 47.4194 24.5C47.4194 30.3483 45.2294 35.8752 41.2507 40.1332L36.0986 34.9814C37.127 33.2854 37.7657 31.3339 37.8954 29.2419H45.8387V27.6613H44.2581V15.0161H39.5161V27.6613H37.9355V19.7581H33.1936V27.6613H31.6129V15.0161H26.871V15.9164C26.3469 15.8516 25.8198 15.8065 25.2903 15.8065V7.1129C25.2903 5.36941 23.8725 3.95161 22.129 3.95161H14.3632C17.5002 2.40107 20.9513 1.58065 24.5 1.58065ZM37.9355 11.8548C37.9355 12.2901 37.5805 12.6452 37.1452 12.6452C36.7099 12.6452 36.3548 12.2901 36.3548 11.8548C36.3548 11.4195 36.7099 11.0645 37.1452 11.0645C37.5805 11.0645 37.9355 11.4195 37.9355 11.8548ZM30.0323 6.32258C30.0323 6.75788 29.6772 7.1129 29.2419 7.1129C28.8066 7.1129 28.4516 6.75788 28.4516 6.32258C28.4516 5.88729 28.8066 5.53226 29.2419 5.53226C29.6772 5.53226 30.0323 5.88729 30.0323 6.32258ZM12.6853 29.2419H4.74194V21.3387H14.844C13.4583 23.3666 12.6452 25.8159 12.6452 28.4516C12.6452 28.7187 12.6687 28.9795 12.6853 29.2419ZM25.2903 17.3871C25.8205 17.3871 26.3477 17.4384 26.871 17.5129V19.1044C26.35 19.0175 25.8221 18.9677 25.2903 18.9677C20.0606 18.9677 15.8065 23.2219 15.8065 28.4516C15.8065 33.6813 20.0606 37.9355 25.2903 37.9355C30.2526 37.9355 34.33 34.1016 34.7341 29.2419H36.3147C35.9068 34.9741 31.1244 39.5161 25.2903 39.5161C19.1889 39.5161 14.2258 34.5531 14.2258 28.4516C14.2258 22.3502 19.1889 17.3871 25.2903 17.3871ZM33.1534 29.2419C32.7556 33.2298 29.3809 36.3548 25.2903 36.3548C20.9324 36.3548 17.3871 32.8096 17.3871 28.4516C17.3871 24.0936 20.9324 20.5484 25.2903 20.5484C25.8244 20.5484 26.3515 20.6202 26.871 20.7255V27.6613H25.2903V29.2419H33.1534ZM28.4516 27.6613V16.5968H30.0323V27.6613H28.4516ZM34.7742 27.6613V21.3387H36.3548V27.6613H34.7742ZM41.0968 27.6613V16.5968H42.6774V27.6613H41.0968ZM1.58065 7.1129C1.58065 6.24116 2.28954 5.53226 3.16129 5.53226H22.129C23.0008 5.53226 23.7097 6.24116 23.7097 7.1129V10.2742H1.58065V7.1129ZM1.58065 11.8548H23.7097V15.9164C20.7413 16.2892 18.0937 17.6912 16.1314 19.7581H3.16129V30.8226H12.8759C12.9786 31.3625 13.1171 31.8896 13.2861 32.4032H3.16129V33.9839H13.9372C14.5079 35.1489 15.2477 36.214 16.1314 37.1452H1.58065V11.8548ZM3.16129 43.4677C2.28954 43.4677 1.58065 42.7588 1.58065 41.8871V38.7258H17.9467C19.6134 39.9209 21.5784 40.7197 23.7097 40.9868V41.8871C23.7097 42.7588 23.0008 43.4677 22.129 43.4677H3.16129ZM24.5 47.4194C20.9555 47.4194 17.5033 46.5974 14.3674 45.0484H22.129C23.8725 45.0484 25.2903 43.6306 25.2903 41.8871V41.0968C27.681 41.0968 29.9107 40.418 31.8201 39.2599L36.5455 43.9852C32.9288 46.225 28.785 47.4194 24.5 47.4194ZM42.8125 47.4194C42.427 47.4194 42.0642 47.2692 41.7906 46.9956L33.1415 38.3465C33.8986 37.7449 34.5828 37.0599 35.1852 36.3027L43.8351 44.9527C44.108 45.2255 44.2581 45.5883 44.2581 45.9738C44.2581 46.7714 43.6101 47.4194 42.8125 47.4194Z" fill="#343434"/>
<path d="M9 40H17V42H9V40Z" fill="#343434"/>
<path d="M3 13H5V15H3V13Z" fill="#343434"/>
<path d="M6 13H8V15H6V13Z" fill="#343434"/>
<path d="M9 13H11V15H9V13Z" fill="#343434"/>
<path d="M13 13H22V15H13V13Z" fill="#343434"/>
<path d="M3 17H12V19H3V17Z" fill="#343434"/>
<path d="M14 17H16V19H14V17Z" fill="#343434"/>
</svg>
