<svg width="51" height="51" viewBox="0 0 51 51" fill="none" xmlns="http://www.w3.org/2000/svg">
<path d="M30.1944 43.6H28.5833V35.76C28.5833 35.5478 28.4985 35.3443 28.3474 35.1943C28.1963 35.0443 27.9914 34.96 27.7778 34.96C27.5641 34.96 27.3592 35.0443 27.2082 35.1943C27.0571 35.3443 26.9722 35.5478 26.9722 35.76V43.6H6.02778V27.6H12.73C12.9436 27.6 13.1485 27.5157 13.2996 27.3657C13.4507 27.2157 13.5356 27.0122 13.5356 26.8C13.5356 26.5878 13.4507 26.3843 13.2996 26.2343C13.1485 26.0843 12.9436 26 12.73 26H5.22222C5.00858 26 4.80368 26.0843 4.65261 26.2343C4.50154 26.3843 4.41667 26.5878 4.41667 26.8V43.6H2.80556C2.59191 43.6 2.38701 43.6843 2.23594 43.8343C2.08487 43.9843 2 44.1878 2 44.4V46C2 47.0609 2.42435 48.0783 3.17971 48.8284C3.93506 49.5786 4.95954 50 6.02778 50H26.9722C28.0405 50 29.0649 49.5786 29.8203 48.8284C30.5756 48.0783 31 47.0609 31 46V44.4C31 44.1878 30.9151 43.9843 30.7641 43.8343C30.613 43.6843 30.4081 43.6 30.1944 43.6ZM29.3889 46C29.3889 46.6365 29.1343 47.247 28.6811 47.6971C28.2278 48.1471 27.6132 48.4 26.9722 48.4H25.3611V47.6C25.3611 47.3878 25.2762 47.1843 25.1252 47.0343C24.9741 46.8843 24.7692 46.8 24.5556 46.8C24.3419 46.8 24.137 46.8843 23.9859 47.0343C23.8349 47.1843 23.75 47.3878 23.75 47.6V48.4H9.25V47.6C9.25 47.3878 9.16513 47.1843 9.01406 47.0343C8.86299 46.8843 8.65809 46.8 8.44444 46.8C8.2308 46.8 8.0259 46.8843 7.87483 47.0343C7.72376 47.1843 7.63889 47.3878 7.63889 47.6V48.4H6.02778C5.38684 48.4 4.77215 48.1471 4.31894 47.6971C3.86572 47.247 3.61111 46.6365 3.61111 46V45.2H29.3889V46Z" fill="#343434"/>
<path d="M42.75 6.6H44.25C44.4489 6.6 44.6397 6.51571 44.7803 6.36569C44.921 6.21566 45 6.01217 45 5.8C45 5.58783 44.921 5.38434 44.7803 5.23431C44.6397 5.08429 44.4489 5 44.25 5H42.75C42.1533 5 41.581 5.25286 41.159 5.70294C40.7371 6.15303 40.5 6.76348 40.5 7.4V8.2H39.75C39.5511 8.2 39.3603 8.28429 39.2197 8.43431C39.079 8.58434 39 8.78783 39 9C39 9.21217 39.079 9.41566 39.2197 9.56569C39.3603 9.71571 39.5511 9.8 39.75 9.8H40.5V12.2C40.5 12.4122 40.579 12.6157 40.7197 12.7657C40.8603 12.9157 41.0511 13 41.25 13C41.4489 13 41.6397 12.9157 41.7803 12.7657C41.921 12.6157 42 12.4122 42 12.2V9.8H42.75C42.9489 9.8 43.1397 9.71571 43.2803 9.56569C43.421 9.41566 43.5 9.21217 43.5 9C43.5 8.78783 43.421 8.58434 43.2803 8.43431C43.1397 8.28429 42.9489 8.2 42.75 8.2H42V7.4C42 7.18783 42.079 6.98434 42.2197 6.83431C42.3603 6.68429 42.5511 6.6 42.75 6.6Z" fill="#343434"/>
<path d="M46.6667 2H37.3333C36.7145 2 36.121 2.24583 35.6834 2.68342C35.2458 3.121 35 3.71449 35 4.33333V5.88889C35 6.09517 35.0819 6.293 35.2278 6.43886C35.3737 6.58472 35.5715 6.66667 35.7778 6.66667C35.9841 6.66667 36.1819 6.58472 36.3278 6.43886C36.4736 6.293 36.5556 6.09517 36.5556 5.88889V4.33333C36.5556 4.12705 36.6375 3.92922 36.7834 3.78336C36.9292 3.6375 37.1271 3.55556 37.3333 3.55556H46.6667C46.8729 3.55556 47.0708 3.6375 47.2166 3.78336C47.3625 3.92922 47.4444 4.12705 47.4444 4.33333V13.6667C47.4444 13.8729 47.3625 14.0708 47.2166 14.2166C47.0708 14.3625 46.8729 14.4444 46.6667 14.4444H37.3333C37.1271 14.4444 36.9292 14.3625 36.7834 14.2166C36.6375 14.0708 36.5556 13.8729 36.5556 13.6667V9C36.5556 8.79372 36.4736 8.59589 36.3278 8.45003C36.1819 8.30417 35.9841 8.22222 35.7778 8.22222C35.5715 8.22222 35.3737 8.30417 35.2278 8.45003C35.0819 8.59589 35 8.79372 35 9V13.6667C35 14.2855 35.2458 14.879 35.6834 15.3166C36.121 15.7542 36.7145 16 37.3333 16H46.6667C47.2855 16 47.879 15.7542 48.3166 15.3166C48.7542 14.879 49 14.2855 49 13.6667V4.33333C49 3.71449 48.7542 3.121 48.3166 2.68342C47.879 2.24583 47.2855 2 46.6667 2Z" fill="#343434"/>
<path d="M39 33C39 33.5933 39.1759 34.1734 39.5056 34.6667C39.8352 35.1601 40.3038 35.5446 40.8519 35.7716C41.4001 35.9987 42.0033 36.0581 42.5853 35.9424C43.1672 35.8266 43.7018 35.5409 44.1213 35.1213C44.5409 34.7018 44.8266 34.1672 44.9424 33.5853C45.0581 33.0033 44.9987 32.4001 44.7716 31.8519C44.5446 31.3038 44.1601 30.8352 43.6667 30.5056C43.1734 30.1759 42.5933 30 42 30C41.2043 30 40.4413 30.3161 39.8787 30.8787C39.3161 31.4413 39 32.2043 39 33ZM43.5 33C43.5 33.2967 43.412 33.5867 43.2472 33.8334C43.0824 34.08 42.8481 34.2723 42.574 34.3858C42.2999 34.4993 41.9983 34.5291 41.7074 34.4712C41.4164 34.4133 41.1491 34.2704 40.9393 34.0607C40.7296 33.8509 40.5867 33.5836 40.5288 33.2926C40.4709 33.0017 40.5006 32.7001 40.6142 32.426C40.7277 32.1519 40.92 31.9176 41.1666 31.7528C41.4133 31.588 41.7033 31.5 42 31.5C42.3978 31.5 42.7794 31.658 43.0607 31.9393C43.342 32.2206 43.5 32.6022 43.5 33Z" fill="#343434"/>
<path d="M46.6667 26H37.3333C36.7145 26 36.121 26.2458 35.6834 26.6834C35.2458 27.121 35 27.7145 35 28.3333V37.6667C35 38.2855 35.2458 38.879 35.6834 39.3166C36.121 39.7542 36.7145 40 37.3333 40H46.6667C47.2855 40 47.879 39.7542 48.3166 39.3166C48.7542 38.879 49 38.2855 49 37.6667V36.1111C49 35.9048 48.9181 35.707 48.7722 35.5611C48.6263 35.4153 48.4285 35.3333 48.2222 35.3333C48.0159 35.3333 47.8181 35.4153 47.6722 35.5611C47.5264 35.707 47.4444 35.9048 47.4444 36.1111V37.6667C47.4444 37.8729 47.3625 38.0708 47.2166 38.2166C47.0708 38.3625 46.8729 38.4444 46.6667 38.4444H37.3333C37.1271 38.4444 36.9292 38.3625 36.7834 38.2166C36.6375 38.0708 36.5556 37.8729 36.5556 37.6667V28.3333C36.5556 28.1271 36.6375 27.9292 36.7834 27.7834C36.9292 27.6375 37.1271 27.5556 37.3333 27.5556H46.6667C46.8729 27.5556 47.0708 27.6375 47.2166 27.7834C47.3625 27.9292 47.4444 28.1271 47.4444 28.3333V33C47.4444 33.2063 47.5264 33.4041 47.6722 33.55C47.8181 33.6958 48.0159 33.7778 48.2222 33.7778C48.4285 33.7778 48.6263 33.6958 48.7722 33.55C48.9181 33.4041 49 33.2063 49 33V28.3333C49 27.7145 48.7542 27.121 48.3166 26.6834C47.879 26.2458 47.2855 26 46.6667 26Z" fill="#343434"/>
<path d="M19.3528 10.8875C19.4722 10.9615 19.61 11.0004 19.7506 11C19.8681 10.9993 19.9837 10.971 20.0883 10.9175L24.5917 8.66662C24.7146 8.60365 24.8178 8.508 24.8898 8.39018C24.9619 8.27236 25 8.13695 25 7.99886C25 7.86078 24.9619 7.72537 24.8898 7.60755C24.8178 7.48973 24.7146 7.39407 24.5917 7.33111L20.0883 5.08026C19.9741 5.02271 19.847 4.9953 19.7191 5.00066C19.5913 5.00601 19.467 5.04394 19.3579 5.11084C19.2489 5.17775 19.1588 5.27141 19.0961 5.38292C19.0335 5.49444 19.0004 5.62012 19 5.74801V10.2497C18.9997 10.3772 19.032 10.5027 19.0937 10.6143C19.1554 10.7259 19.2446 10.8199 19.3528 10.8875ZM20.5011 6.96347L22.5727 7.99886L20.5011 9.03425V6.96347Z" fill="#343434"/>
<path d="M21 15C22.3845 15 23.7378 14.5895 24.889 13.8203C26.0401 13.0511 26.9373 11.9579 27.4672 10.6788C27.997 9.3997 28.1356 7.99224 27.8655 6.63437C27.5954 5.2765 26.9287 4.02922 25.9497 3.05026C24.9708 2.07129 23.7235 1.4046 22.3656 1.13451C21.0078 0.86441 19.6003 1.00303 18.3212 1.53285C17.0421 2.06266 15.9489 2.95987 15.1797 4.11101C14.4105 5.26215 14 6.61553 14 8C14 9.85652 14.7375 11.637 16.0503 12.9497C17.363 14.2625 19.1435 15 21 15ZM21 2.55556C22.0768 2.55556 23.1294 2.87487 24.0248 3.47311C24.9201 4.07136 25.6179 4.92166 26.03 5.9165C26.4421 6.91135 26.5499 8.00604 26.3398 9.06216C26.1298 10.1183 25.6112 11.0884 24.8498 11.8498C24.0884 12.6112 23.1183 13.1298 22.0622 13.3398C21.006 13.5499 19.9113 13.4421 18.9165 13.03C17.9217 12.6179 17.0714 11.9201 16.4731 11.0248C15.8749 10.1294 15.5556 9.07681 15.5556 8C15.5556 6.55605 16.1292 5.17123 17.1502 4.1502C18.1712 3.12917 19.556 2.55556 21 2.55556Z" fill="#343434"/>
<path d="M29.8 19C29.9242 19 30.0467 18.9699 30.1578 18.912C30.2689 18.8542 30.3655 18.7702 30.44 18.6667L32.84 15.3333C32.9673 15.1565 33.022 14.9343 32.992 14.7155C32.962 14.4967 32.8497 14.2993 32.68 14.1667C32.5103 14.0341 32.2969 13.9771 32.0869 14.0084C31.8768 14.0396 31.6873 14.1565 31.56 14.3333L29.16 17.6667C29.0327 17.8435 28.978 18.0657 29.008 18.2845C29.038 18.5033 29.1503 18.7007 29.32 18.8333C29.4585 18.9415 29.6269 19 29.8 19Z" fill="#343434"/>
<path d="M31.1667 21.68C31.2443 21.7794 31.3449 21.86 31.4607 21.9155C31.5764 21.9711 31.704 22 31.8333 22C32.0136 22 32.1891 21.9439 32.3333 21.84L35.6667 19.44C35.8435 19.3127 35.9604 19.1232 35.9916 18.9131C36.0229 18.7031 35.9659 18.4897 35.8333 18.32C35.7007 18.1503 35.5033 18.038 35.2845 18.008C35.0657 17.978 34.8435 18.0327 34.6667 18.16L31.3333 20.56C31.1565 20.6873 31.0396 20.8768 31.0084 21.0869C30.9771 21.2969 31.0341 21.5103 31.1667 21.68Z" fill="#343434"/>
<path d="M38.9802 22.5439C38.9602 22.4563 38.9178 22.3728 38.8557 22.2984C38.7936 22.224 38.7129 22.1603 38.6186 22.1109C38.5243 22.0616 38.4182 22.0277 38.3068 22.0113C38.1954 21.9949 38.0809 21.9964 37.9702 22.0155L33.7617 22.6759C33.6512 22.6846 33.5439 22.7103 33.446 22.7515C33.3481 22.7927 33.2615 22.8486 33.1912 22.9161C33.0491 23.0523 32.9819 23.2272 33.0042 23.4024C33.0265 23.5775 33.1366 23.7385 33.3102 23.85C33.4839 23.9614 33.7068 24.0142 33.9301 23.9967H34.0984L38.3068 23.3363C38.4184 23.3206 38.5248 23.2874 38.6196 23.2386C38.7145 23.1899 38.7958 23.1266 38.8586 23.0526C38.9215 22.9786 38.9647 22.8954 38.9856 22.808C39.0065 22.7205 39.0046 22.6307 38.9802 22.5439Z" fill="#343434"/>
<path d="M2.78571 23H12.2143C12.4227 23 12.6225 22.9181 12.7699 22.7722C12.9172 22.6263 13 22.4285 13 22.2222V9.77778C13 9.5715 12.9172 9.37367 12.7699 9.22781C12.6225 9.08194 12.4227 9 12.2143 9H2.78571C2.57733 9 2.37748 9.08194 2.23013 9.22781C2.08278 9.37367 2 9.5715 2 9.77778V22.2222C2 22.4285 2.08278 22.6263 2.23013 22.7722C2.37748 22.9181 2.57733 23 2.78571 23ZM3.57143 10.5556H11.4286V21.4444H3.57143V10.5556Z" fill="#343434"/>
<path d="M8.25 12H6.75C6.55109 12 6.36032 12.1054 6.21967 12.2929C6.07902 12.4804 6 12.7348 6 13C6 13.2652 6.07902 13.5196 6.21967 13.7071C6.36032 13.8946 6.55109 14 6.75 14H8.25C8.44891 14 8.63968 13.8946 8.78033 13.7071C8.92098 13.5196 9 13.2652 9 13C9 12.7348 8.92098 12.4804 8.78033 12.2929C8.63968 12.1054 8.44891 12 8.25 12Z" fill="#343434"/>
<path d="M9.16667 15H5.83333C5.61232 15 5.40036 15.1054 5.24408 15.2929C5.0878 15.4804 5 15.7348 5 16C5 16.2652 5.0878 16.5196 5.24408 16.7071C5.40036 16.8946 5.61232 17 5.83333 17H9.16667C9.38768 17 9.59964 16.8946 9.75592 16.7071C9.9122 16.5196 10 16.2652 10 16C10 15.7348 9.9122 15.4804 9.75592 15.2929C9.59964 15.1054 9.38768 15 9.16667 15Z" fill="#343434"/>
<path d="M9.16667 18H5.83333C5.61232 18 5.40036 18.1054 5.24408 18.2929C5.0878 18.4804 5 18.7348 5 19C5 19.2652 5.0878 19.5196 5.24408 19.7071C5.40036 19.8946 5.61232 20 5.83333 20H9.16667C9.38768 20 9.59964 19.8946 9.75592 19.7071C9.9122 19.5196 10 19.2652 10 19C10 18.7348 9.9122 18.4804 9.75592 18.2929C9.59964 18.1054 9.38768 18 9.16667 18Z" fill="#343434"/>
<path d="M28.874 22.5084C28.821 22.418 28.7503 22.3387 28.666 22.2751C28.5817 22.2114 28.4855 22.1647 28.3827 22.1375C28.28 22.1103 28.1728 22.1032 28.0673 22.1166C27.9617 22.13 27.8599 22.1637 27.7677 22.2156C27.6754 22.2676 27.5945 22.3368 27.5295 22.4194C27.4646 22.502 27.4169 22.5964 27.3891 22.697C27.3614 22.7977 27.3541 22.9027 27.3678 23.0061C27.3815 23.1096 27.4158 23.2093 27.4689 23.2997L31.0303 29.3375L18.109 34.0855C18.109 34.0855 18.109 34.0855 18.0525 34.0855H17.9879L15.8882 35.2724L14.4911 36.0638C14.3072 36.168 14.1041 36.2356 13.8934 36.2627C13.6828 36.2899 13.4688 36.276 13.2636 36.222C12.8514 36.1129 12.5001 35.8483 12.2864 35.4861L10.6713 32.7481C10.4813 32.3899 10.4381 31.9741 10.5507 31.5857C10.6633 31.1974 10.9231 30.8659 11.277 30.659L14.0712 29.0764L16.0901 32.5028C16.1613 32.6236 16.2637 32.7238 16.3871 32.7932C16.5105 32.8627 16.6504 32.899 16.7927 32.8985C16.9347 32.899 17.0744 32.8629 17.1976 32.7936C17.3208 32.7244 17.4232 32.6246 17.4945 32.5042C17.5658 32.3838 17.6033 32.2471 17.6035 32.1079C17.6036 31.9688 17.5663 31.832 17.4953 31.7115L15.4117 28.1822L25.5468 19.992L25.8779 20.5538C25.931 20.6442 26.0016 20.7235 26.0859 20.7872C26.1702 20.8508 26.2665 20.8976 26.3692 20.9248C26.472 20.9519 26.5792 20.959 26.6847 20.9456C26.7902 20.9322 26.892 20.8986 26.9843 20.8466C27.0766 20.7947 27.1575 20.7254 27.2224 20.6428C27.2874 20.5602 27.3351 20.4659 27.3629 20.3652C27.3906 20.2645 27.3978 20.1595 27.3842 20.0561C27.3705 19.9527 27.3361 19.8529 27.2831 19.7625L26.4755 18.3935C26.4164 18.2944 26.3359 18.209 26.2396 18.1435C26.1434 18.0779 26.0338 18.0336 25.9183 18.0137C25.8022 17.9923 25.6828 17.996 25.5684 18.0247C25.454 18.0535 25.3474 18.1064 25.2561 18.1799L13.95 27.3117L10.5098 29.2584C9.89238 29.6107 9.41163 30.1537 9.14276 30.8024C8.87389 31.451 8.83206 32.1687 9.02382 32.8431L8.21624 33.2941C7.80014 33.5283 7.46437 33.8782 7.25149 34.2996C7.03861 34.7209 6.95822 35.1948 7.0205 35.6609C7.08278 36.1271 7.28493 36.5647 7.60133 36.9182C7.91773 37.2717 8.33411 37.5251 8.7977 37.6464C9.00322 37.6998 9.215 37.7264 9.42761 37.7255C9.85245 37.7238 10.2697 37.6148 10.639 37.409L11.4465 36.958C11.8345 37.3506 12.3224 37.6347 12.8598 37.7809C13.1358 37.8566 13.4212 37.8939 13.7078 37.8917C14.2754 37.893 14.8331 37.7455 15.3229 37.4644L16.0255 37.0687L17.6407 39.8146C17.9616 40.3584 18.4895 40.7554 19.1086 40.9185C19.7277 41.0817 20.3876 40.9977 20.9436 40.6851C21.2195 40.5293 21.4613 40.3218 21.6553 40.0744C21.8493 39.827 21.9916 39.5446 22.0741 39.2433C22.1566 38.942 22.1777 38.6277 22.1361 38.3184C22.0946 38.0091 21.9912 37.7108 21.832 37.4407L20.3622 34.9322L32.4758 30.477C32.5857 30.4366 32.6852 30.3731 32.7675 30.2911C32.8498 30.2091 32.9129 30.1105 32.9523 30.0022C32.9916 29.8952 33.0069 29.7811 32.9971 29.6678C32.9874 29.5544 32.9528 29.4445 32.8958 29.3454L28.874 22.5084ZM9.79909 36.0321C9.70713 36.0842 9.60558 36.118 9.50026 36.1316C9.39494 36.1452 9.28792 36.1383 9.18533 36.1112C8.97843 36.0586 8.80128 35.9277 8.69271 35.7472C8.63955 35.6571 8.60505 35.5576 8.59119 35.4544C8.57733 35.3512 8.58439 35.2463 8.61196 35.1458C8.63953 35.0448 8.68727 34.9501 8.75242 34.8672C8.81757 34.7844 8.89883 34.715 8.99152 34.6631L9.69411 34.2675L10.5017 35.6364L9.79909 36.0321ZM20.4268 38.2478C20.48 38.3379 20.5145 38.4374 20.5283 38.5406C20.5422 38.6438 20.5351 38.7487 20.5076 38.8492C20.45 39.0504 20.3135 39.221 20.128 39.324C19.9435 39.4278 19.7247 39.4562 19.5191 39.4028C19.3134 39.3495 19.1376 39.2188 19.0297 39.0391L17.4145 36.2932L18.7551 35.5415H18.8197L20.4268 38.2478Z" fill="#343434"/>
</svg>
