<svg width="96" height="96" viewBox="-4 0 96 96" fill="none" xmlns="http://www.w3.org/2000/svg">
<path d="M10.6222 75.4147H31.4981L29.3115 83.1112C28.3585 83.3721 27.5172 83.9407 26.917 84.7294C26.3167 85.5182 25.9909 86.4835 25.9895 87.4767V90.4922C25.9895 90.8921 26.1475 91.2756 26.4286 91.5584C26.7098 91.8412 27.0911 92 27.4888 92H54.4753C54.8729 92 55.2542 91.8412 55.5354 91.5584C55.8166 91.2756 55.9745 90.8921 55.9745 90.4922V87.4767C55.9732 86.4835 55.6473 85.5182 55.0471 84.7294C54.4469 83.9407 53.6055 83.3721 52.6526 83.1112L50.4659 75.4147H71.3419C72.8324 75.413 74.2615 74.8168 75.3155 73.7568C76.3695 72.6968 76.9624 71.2597 76.9641 69.7606V48.4555L79.3113 50.8067C79.5923 51.0881 79.9727 51.2461 80.3692 51.2462H80.3722C80.7698 51.2454 81.1508 51.0858 81.4314 50.8025L86.4967 45.6884L91.563 40.5733C91.8436 40.29 92.0008 39.9063 92 39.5064C91.9992 39.1066 91.8406 38.7234 91.5589 38.4412L81.3868 28.2525C81.2473 28.1128 81.0818 28.0021 80.8998 27.9267C80.7177 27.8513 80.5227 27.8127 80.3258 27.8131C80.1289 27.8135 79.934 27.8529 79.7523 27.929C79.5705 28.0052 79.4055 28.1166 79.2665 28.2569L76.9641 30.5818V26.7896C76.9624 25.2906 76.3695 23.8535 75.3155 22.7935C74.2615 21.7335 72.8324 21.1373 71.3419 21.1356H68.2152L68.8149 19.9092C68.9831 19.5656 69.0147 19.1705 68.9033 18.8043C68.7918 18.4381 68.5458 18.1284 68.2152 17.9384L68.7929 16.7565C69.2329 15.8569 69.4307 14.857 69.3667 13.8566C69.3027 12.8562 68.9791 11.8901 68.4281 11.0546C67.8772 10.2191 67.1181 9.54337 66.2266 9.0948C65.3351 8.64623 64.3423 8.44044 63.3471 8.49796C62.7846 7.6707 62.0164 7.0061 61.119 6.57039C60.2216 6.13469 59.2263 5.94307 58.2323 6.01465C57.2384 6.08622 56.2804 6.41848 55.4539 6.97833C54.6273 7.53817 53.9611 8.30606 53.5216 9.20547L52.9459 10.383L50.5169 9.1821C50.1601 9.00573 49.7482 8.97912 49.3719 9.10813C48.9955 9.23713 48.6856 9.51119 48.5101 9.87001L43.5626 19.9921C43.3832 20.36 43.2352 20.7425 43.1201 21.1356H10.6222C9.13161 21.1373 7.70256 21.7335 6.64856 22.7935C5.59456 23.8535 5.00169 25.2906 5 26.7896V69.7606C5.00169 71.2597 5.59456 72.6968 6.64856 73.7568C7.70256 74.8168 9.13161 75.413 10.6222 75.4147ZM52.976 88.9845H28.988V87.4767C28.9885 87.077 29.1466 86.6938 29.4276 86.4111C29.7087 86.1284 30.0898 85.9694 30.4873 85.969H51.4768C51.8743 85.9694 52.2554 86.1284 52.5364 86.4111C52.8175 86.6938 52.9756 87.077 52.976 87.4767V88.9845ZM49.4892 82.9535H32.4749L34.6166 75.4147H36.4843C36.4843 76.6144 36.9581 77.7649 37.8016 78.6131C38.6451 79.4614 39.7891 79.938 40.982 79.938C42.1749 79.938 43.3189 79.4614 44.1624 78.6131C45.0059 77.7649 45.4798 76.6144 45.4798 75.4147H47.3475L49.4892 82.9535ZM42.4813 75.4147C42.4813 75.8146 42.3233 76.1981 42.0422 76.4809C41.761 76.7636 41.3797 76.9225 40.982 76.9225C40.5844 76.9225 40.2031 76.7636 39.9219 76.4809C39.6407 76.1981 39.4828 75.8146 39.4828 75.4147H42.4813ZM73.9655 69.7606C73.9648 70.4602 73.6881 71.1309 73.1963 71.6256C72.7044 72.1202 72.0375 72.3985 71.3419 72.3992H10.6222C9.92657 72.3985 9.25966 72.1202 8.76778 71.6256C8.27591 71.1309 7.99925 70.4602 7.9985 69.7606V69.3837H73.9655V69.7606ZM75.2678 36.5674L78.2289 39.5338L75.2793 42.5116L72.3182 39.5452L75.2678 36.5674ZM80.3653 47.6063L77.4043 44.6399L80.3539 41.6621L83.3149 44.6285L80.3653 47.6063ZM85.4309 42.4916L82.4699 39.5255L85.4194 36.5476L88.3805 39.514L85.4309 42.4916ZM80.3334 31.4531L83.2944 34.4193L80.3449 37.3971L77.3838 34.431L80.3334 31.4531ZM58.1923 31.8301C57.8818 31.6765 57.6446 31.4052 57.533 31.0759C57.4214 30.7465 57.4444 30.386 57.5971 30.0737L63.1209 18.7742L65.4624 19.9318L59.9387 31.2313C59.7858 31.5433 59.516 31.7816 59.1886 31.8938C58.8612 32.0061 58.5029 31.9832 58.1923 31.8301ZM64.8681 11.7826C65.5122 12.1011 66.0042 12.6639 66.2358 13.3472C66.4673 14.0305 66.4195 14.7782 66.1029 15.4261L65.5272 16.6036L63.1846 15.4461L63.7603 14.2683C64.1678 13.4363 64.3672 12.5169 64.3413 11.5898C64.5231 11.6355 64.6996 11.7002 64.8681 11.7826ZM56.2125 10.5363C56.534 9.89672 57.0932 9.41046 57.7689 9.18301C58.4446 8.95555 59.1823 9.00525 59.8218 9.32132C60.4613 9.63738 60.951 10.1943 61.1848 10.8713C61.4185 11.5482 61.3774 12.2905 61.0703 12.9372L60.4948 14.1149L55.6372 11.7138L56.2125 10.5363ZM46.2528 21.3229L50.5397 12.5538L52.9685 13.7547L60.4299 17.4437L54.9063 28.7433C54.7112 29.143 54.5784 29.5705 54.5128 30.0108L48.1273 26.8537C47.1495 26.3702 46.4027 25.5159 46.0513 24.4786C45.6998 23.4414 45.7725 22.3063 46.2532 21.3229H46.2528ZM7.9985 26.7896C7.99925 26.0901 8.27591 25.4194 8.76778 24.9247C9.25966 24.4301 9.92657 24.1518 10.6222 24.1511H42.9029C42.966 24.5933 43.0698 25.0286 43.2129 25.4515C43.5117 26.3412 43.9829 27.1624 44.5994 27.8676C45.2159 28.5729 45.9653 29.1482 46.8044 29.5601L56.8694 34.5357C57.8936 35.0419 59.0758 35.1182 60.156 34.748C61.2362 34.3777 62.1259 33.5912 62.6295 32.5613L66.7412 24.1511H71.3419C72.0375 24.1518 72.7044 24.4301 73.1963 24.9247C73.6881 25.4194 73.9648 26.0901 73.9655 26.7896V32.9304L70.1852 32.9377C69.9883 32.9379 69.7934 32.977 69.6115 33.053C69.4297 33.1289 69.2645 33.2401 69.1254 33.3803C68.9863 33.5204 68.8761 33.6867 68.8009 33.8697C68.7257 34.0527 68.6871 34.2488 68.6872 34.4468C68.6874 34.6448 68.7264 34.8408 68.8019 35.0237C68.8774 35.2065 68.988 35.3727 69.1273 35.5125C69.2666 35.6524 69.432 35.7633 69.614 35.8389C69.7959 35.9146 69.9909 35.9534 70.1878 35.9532H70.1908L71.6469 35.9504L69.1357 38.4859C68.8551 38.7692 68.6979 39.153 68.6987 39.5528C68.6995 39.9526 68.8582 40.3358 69.1398 40.618L73.9655 45.4519V66.3682H7.9985V26.7896Z" fill="white"/>
<path d="M55.5194 38.0902H31.3501L29.7484 31.5366C29.5684 30.7964 29.1512 30.1392 28.5634 29.6698C27.9757 29.2004 27.2512 28.9458 26.5055 28.9466H25.3025C24.9942 28.5427 24.5703 28.2472 24.09 28.1015C23.6096 27.9559 23.0968 27.9672 22.6231 28.134C22.1494 28.3007 21.7383 28.6146 21.4474 29.0318C21.1564 29.449 21 29.9487 21 30.4612C21 30.9737 21.1564 31.4734 21.4474 31.8906C21.7383 32.3078 22.1494 32.6217 22.6231 32.7885C23.0968 32.9552 23.6096 32.9666 24.09 32.8209C24.5703 32.6752 24.9942 32.3798 25.3025 31.9758H26.5066C26.5918 31.9757 26.6745 32.0048 26.7416 32.0584C26.8087 32.112 26.8563 32.187 26.8768 32.2715L31.331 51.8209C30.5472 51.8835 29.7934 52.1572 29.1465 52.6143C28.4995 53.0714 27.9823 53.6955 27.6475 54.4233C27.3128 55.151 27.1723 55.9565 27.2403 56.7577C27.3084 57.559 27.5827 58.3276 28.0352 58.9854C27.8877 59.4874 27.8408 60.0148 27.8974 60.5359C27.954 61.0569 28.1128 61.5609 28.3644 62.0177C28.616 62.4744 28.9552 62.8745 29.3616 63.1939C29.768 63.5133 30.2333 63.7454 30.7295 63.8764C31.2258 64.0075 31.7428 64.0346 32.2495 63.9563C32.7563 63.878 33.2423 63.6958 33.6786 63.4207C34.1148 63.1455 34.4923 62.7831 34.7883 62.3551C35.0843 61.9272 35.2928 61.4425 35.4013 60.9301H45.8419C46.0295 61.806 46.5067 62.589 47.193 63.1468C47.8793 63.7047 48.7327 64.0034 49.6092 63.9925C50.4858 63.9816 51.3318 63.6618 52.0046 63.087C52.6775 62.5122 53.1359 61.7177 53.3026 60.8373C53.4694 59.957 53.3342 59.0448 52.9199 58.2545C52.5056 57.4643 51.8376 56.8444 51.0284 56.4994C50.2193 56.1544 49.3186 56.1054 48.4783 56.3607C47.638 56.6161 46.9095 57.16 46.4156 57.9009H35.2617C35.1272 57.9012 34.9933 57.9203 34.8638 57.9577C34.3748 57.1941 33.6388 56.6308 32.7847 56.3664C31.9305 56.1021 31.0127 56.1536 30.1919 56.5118C30.1878 56.4651 30.1849 56.4172 30.1849 56.3676C30.1852 55.961 30.3433 55.5711 30.6243 55.2836C30.9054 54.9961 31.2865 54.8344 31.684 54.834H49.0371C49.9342 54.8349 50.8087 54.5467 51.5366 54.0102C52.2644 53.4737 52.8085 52.7163 53.0916 51.8456L53.9524 49.2035L53.9546 49.1969L55.4417 44.6342L55.4445 44.6257L56.924 40.0851C56.9982 39.8575 57.0184 39.615 56.9831 39.3778C56.9477 39.1405 56.8577 38.9153 56.7206 38.7206C56.5834 38.5259 56.403 38.3673 56.1941 38.258C55.9853 38.1486 55.7541 38.0916 55.5194 38.0915V38.0902ZM49.5605 59.2292C49.728 59.2292 49.8918 59.28 50.0312 59.3751C50.1705 59.4703 50.2791 59.6057 50.3432 59.764C50.4074 59.9223 50.4242 60.0966 50.3915 60.2647C50.3589 60.4328 50.2782 60.5872 50.1597 60.7084C50.0413 60.8296 49.8903 60.9122 49.726 60.9456C49.5617 60.9791 49.3913 60.9619 49.2365 60.8963C49.0818 60.8307 48.9494 60.7197 48.8564 60.5772C48.7633 60.4347 48.7136 60.2671 48.7136 60.0957C48.7138 59.866 48.8031 59.6458 48.9619 59.4833C49.1207 59.3209 49.3359 59.2295 49.5605 59.2292ZM31.6838 59.2292C31.8513 59.2292 32.0151 59.28 32.1544 59.3752C32.2937 59.4705 32.4023 59.6058 32.4664 59.7641C32.5305 59.9225 32.5473 60.0967 32.5146 60.2648C32.4819 60.4329 32.4013 60.5873 32.2828 60.7085C32.1643 60.8297 32.0134 60.9122 31.8491 60.9456C31.6847 60.9791 31.5144 60.9619 31.3596 60.8963C31.2048 60.8307 31.0725 60.7197 30.9795 60.5772C30.8864 60.4347 30.8367 60.2671 30.8367 60.0957C30.837 59.866 30.9263 59.6458 31.0851 59.4833C31.2439 59.3209 31.4592 59.2295 31.6838 59.2292ZM52.9626 42.6618H50.125L50.6277 41.1194H53.4651L52.9626 42.6618ZM51.4729 47.2336H48.6353L49.138 45.691H51.9756L51.4729 47.2336ZM41.8098 51.8054L41.4748 50.2628H44.5269L44.0243 51.8054H41.8098ZM33.0328 45.6903H37.4481L37.7832 47.2329H33.368L33.0328 45.6903ZM34.0262 50.2621H38.4412L38.7764 51.8047H34.3611L34.0262 50.2621ZM40.8167 47.2329L40.4817 45.6903H46.0166L45.5139 47.2329H40.8167ZM39.8235 42.6611L39.4885 41.1186H47.5063L47.0036 42.6611H39.8235ZM36.4551 41.1186L36.7903 42.6611H32.3745L32.0393 41.1186H36.4551ZM49.0373 51.8047H47.1456L47.6483 50.2621H50.4859L50.2823 50.8868C50.1955 51.1544 50.0284 51.3872 49.8049 51.5521C49.5814 51.717 49.3127 51.8056 49.0371 51.8054L49.0373 51.8047Z" fill="white"/>
<path d="M21.5 51H12.5C12.1022 51 11.7206 51.158 11.4393 51.4393C11.158 51.7206 11 52.1022 11 52.5C11 52.8978 11.158 53.2794 11.4393 53.5607C11.7206 53.842 12.1022 54 12.5 54H21.5C21.8978 54 22.2794 53.842 22.5607 53.5607C22.842 53.2794 23 52.8978 23 52.5C23 52.1022 22.842 51.7206 22.5607 51.4393C22.2794 51.158 21.8978 51 21.5 51Z" fill="white"/>
<path d="M22.5 45H16.5C16.1022 45 15.7206 45.158 15.4393 45.4393C15.158 45.7206 15 46.1022 15 46.5C15 46.8978 15.158 47.2794 15.4393 47.5607C15.7206 47.842 16.1022 48 16.5 48H22.5C22.8978 48 23.2794 47.842 23.5607 47.5607C23.842 47.2794 24 46.8978 24 46.5C24 46.1022 23.842 45.7206 23.5607 45.4393C23.2794 45.158 22.8978 45 22.5 45Z" fill="white"/>
<path d="M19.6 57H15.4C15.0287 57 14.6726 57.158 14.4101 57.4393C14.1475 57.7206 14 58.1022 14 58.5C14 58.8978 14.1475 59.2794 14.4101 59.5607C14.6726 59.842 15.0287 60 15.4 60H19.6C19.9713 60 20.3274 59.842 20.5899 59.5607C20.8525 59.2794 21 58.8978 21 58.5C21 58.1022 20.8525 57.7206 20.5899 57.4393C20.3274 57.158 19.9713 57 19.6 57Z" fill="white"/>
</svg>
