<svg width="25" height="25" viewBox="0 0 25 25" fill="none" xmlns="http://www.w3.org/2000/svg">
<path d="M11.8164 24.0234C11.8164 24.5628 11.3792 25 10.8398 25H5.22461C3.07064 25 1.31836 23.2477 1.31836 21.0938V3.90625C1.31836 1.75228 3.07064 0 5.22461 0H17.231C19.3848 0 21.1372 1.75228 21.1372 3.90625V14.2578C21.1372 14.7972 20.6999 15.2344 20.1607 15.2344C19.6213 15.2344 19.1841 14.7972 19.1841 14.2578V3.90625C19.1841 2.82936 18.3079 1.95312 17.231 1.95312H5.22461C4.14772 1.95312 3.27148 2.82936 3.27148 3.90625V21.0938C3.27148 22.1706 4.14772 23.0469 5.22461 23.0469H10.8398C11.3792 23.0469 11.8164 23.484 11.8164 24.0234ZM23.3223 15.9052C22.8838 15.5912 22.2738 15.6923 21.9599 16.1306L17.1463 22.8544C17.0149 23.0068 16.8501 23.0396 16.762 23.0455C16.6708 23.0515 16.4946 23.04 16.3433 22.896L13.2271 19.9038C12.8382 19.5303 12.22 19.5427 11.8464 19.9318C11.4727 20.3209 11.4853 20.9391 11.8744 21.3125L14.9937 24.3078C15.461 24.7524 16.0845 25 16.7261 25C16.7812 25 16.8365 24.9981 16.8919 24.9945C17.5907 24.9479 18.2432 24.608 18.6821 24.0618C18.6933 24.0479 18.7044 24.0334 18.7149 24.0187L23.5479 17.2676C23.8619 16.8291 23.761 16.2191 23.3223 15.9052ZM16.2544 5.85938H6.19583C5.65643 5.85938 5.21927 6.29654 5.21927 6.83594C5.21927 7.37534 5.65643 7.8125 6.19583 7.8125H16.2544C16.7936 7.8125 17.231 7.37534 17.231 6.83594C17.231 6.29654 16.7936 5.85938 16.2544 5.85938ZM17.231 10.7422C17.231 10.2028 16.7936 9.76562 16.2544 9.76562H6.19583C5.65643 9.76562 5.21927 10.2028 5.21927 10.7422C5.21927 11.2816 5.65643 11.7188 6.19583 11.7188H16.2544C16.7936 11.7188 17.231 11.2816 17.231 10.7422ZM6.19583 13.6719C5.65643 13.6719 5.21927 14.109 5.21927 14.6484C5.21927 15.1878 5.65643 15.625 6.19583 15.625H12.3047C12.8441 15.625 13.2812 15.1878 13.2812 14.6484C13.2812 14.109 12.8441 13.6719 12.3047 13.6719H6.19583Z" fill="#99CC33"/>
</svg>
