<svg width="176" height="43" viewBox="0 0 176 43" fill="none" xmlns="http://www.w3.org/2000/svg">
<path d="M68.1677 11.5037L71.7684 25.0001H75.2915L78.9699 6.86678H76.0168L73.3745 20.0264L69.8774 6.86678H66.4838L62.9608 20.0264L60.3185 6.86678H57.3913L61.0697 25.0001H64.5928L68.1677 11.5037ZM93.1265 19.4824V18.7571C93.1265 18.1613 93.1006 17.5914 93.0747 17.0474C93.0229 16.5034 92.8934 15.9334 92.6602 15.3635C92.4271 14.7418 92.0903 14.1978 91.6758 13.7315C91.2614 13.2912 90.7951 12.9026 90.2511 12.5917C89.7071 12.3068 89.1372 12.0736 88.5154 11.9182C87.8937 11.7628 87.272 11.6851 86.6244 11.6851C85.6659 11.6851 84.7593 11.8664 83.9303 12.2032C83.1014 12.5399 82.376 13.0321 81.7802 13.6279C81.1844 14.2237 80.7181 14.9491 80.3814 15.7521C80.0446 16.5811 79.8633 17.4618 79.8633 18.4203C79.8633 19.4047 80.0446 20.3114 80.3814 21.1662C80.7181 22.0211 81.1844 22.7464 81.8061 23.3422C82.4019 23.9639 83.1273 24.4561 83.9821 24.7929C84.837 25.1556 85.7695 25.3369 86.8057 25.3369C88.3859 25.3369 89.6812 24.9742 90.6915 24.2489C91.6758 23.5495 92.4789 22.5133 93.1006 21.1403L93.2301 20.9072L90.5878 19.8969L90.5101 20.13C90.1475 21.0367 89.6812 21.6843 89.1372 22.1247C88.5932 22.5651 87.816 22.7723 86.8057 22.7723C85.6918 22.7723 84.8111 22.4874 84.1116 21.8915C83.4122 21.3216 82.9459 20.5186 82.7646 19.4824H93.1265ZM90.2511 16.9955H82.8164C83.0495 16.1148 83.5158 15.4413 84.1894 14.9491C84.837 14.4569 85.6659 14.2237 86.6244 14.2237C87.6088 14.2237 88.4118 14.4569 89.0595 14.8973C89.6812 15.3635 90.0697 16.063 90.2511 16.9955ZM98.1864 25.0001V23.7826C98.7822 24.3266 99.4558 24.7411 100.207 24.9742C100.958 25.2074 101.735 25.3369 102.564 25.3369C103.575 25.3369 104.507 25.1556 105.31 24.7929C106.113 24.4561 106.813 23.9639 107.383 23.3422C107.953 22.7205 108.393 21.9952 108.704 21.1662C108.989 20.3373 109.144 19.4565 109.144 18.498C109.144 17.5655 108.989 16.6847 108.704 15.8557C108.393 15.0268 107.953 14.3014 107.383 13.6797C106.813 13.058 106.113 12.5658 105.31 12.2032C104.507 11.8664 103.575 11.6851 102.564 11.6851C101.761 11.6851 100.984 11.7887 100.259 11.9959C99.5076 12.2291 98.8341 12.6176 98.2382 13.1616V6.86678H95.4923V25.0001H98.1864ZM106.321 18.498C106.321 19.1197 106.243 19.6896 106.061 20.2077C105.88 20.7258 105.647 21.1662 105.31 21.5548C104.973 21.9434 104.559 22.2283 104.067 22.4355C103.575 22.6687 102.979 22.7723 102.331 22.7723C101.684 22.7723 101.114 22.6687 100.621 22.4355C100.129 22.2283 99.6889 21.9434 99.3521 21.5548C98.9895 21.1662 98.7045 20.7258 98.5232 20.1818C98.3419 19.6637 98.2382 19.0938 98.2382 18.498C98.2382 17.9022 98.3419 17.3323 98.5232 16.7883C98.7045 16.2702 98.9895 15.8298 99.3521 15.4413C99.6889 15.0527 100.129 14.7677 100.621 14.5346C101.114 14.3274 101.684 14.2237 102.331 14.2237C102.979 14.2237 103.575 14.3274 104.067 14.5346C104.559 14.7677 104.973 15.0527 105.31 15.4413C105.647 15.8298 105.88 16.2702 106.061 16.7883C106.243 17.3064 106.321 17.8763 106.321 18.498Z" fill="#424242"/>
<path d="M124.847 13.9906V12.514C124.847 12.0218 124.821 11.5296 124.743 11.0893C124.666 10.6489 124.51 10.1826 124.277 9.7163C123.992 9.12049 123.604 8.6283 123.137 8.21383C122.671 7.82525 122.153 7.48849 121.609 7.22944C121.039 6.9963 120.443 6.81497 119.822 6.68545C119.2 6.58183 118.578 6.53002 117.982 6.53002C117.231 6.53002 116.48 6.63363 115.729 6.84087C114.951 7.04811 114.252 7.35897 113.63 7.77345C113.009 8.18792 112.491 8.70602 112.102 9.35364C111.713 10.0013 111.506 10.7525 111.506 11.6074C111.506 12.514 111.662 13.2394 111.998 13.8352C112.309 14.431 112.724 14.9232 113.242 15.3117C113.734 15.7003 114.33 16.0112 114.977 16.2443C115.625 16.4775 116.273 16.6588 116.92 16.8142C117.257 16.8919 117.568 16.9696 117.905 17.0474C118.215 17.1251 118.526 17.2028 118.811 17.2805C119.148 17.3582 119.511 17.4618 119.899 17.5914C120.262 17.7209 120.599 17.8763 120.91 18.0576C121.195 18.2649 121.454 18.5239 121.661 18.8089C121.842 19.0938 121.946 19.4565 121.946 19.8969C121.946 20.3891 121.842 20.8295 121.609 21.1662C121.376 21.5289 121.091 21.8138 120.728 22.047C120.366 22.2801 119.951 22.4615 119.485 22.5651C119.019 22.6687 118.526 22.7205 118.034 22.7205C115.055 22.7205 113.553 21.2698 113.553 18.3685V17.0733H110.703V18.4462C110.703 19.5601 110.884 20.5704 111.221 21.4253C111.558 22.2801 112.05 23.0055 112.698 23.5754C113.345 24.1712 114.123 24.6116 115.029 24.8965C115.936 25.1815 116.946 25.3369 118.06 25.3369C118.889 25.3369 119.718 25.2333 120.521 25.026C121.324 24.7929 122.023 24.4561 122.671 24.0157C123.293 23.5754 123.811 23.0055 124.199 22.306C124.588 21.6325 124.795 20.8295 124.795 19.8969C124.795 19.0679 124.666 18.3685 124.381 17.7986C124.096 17.2287 123.733 16.7365 123.293 16.3479C122.852 15.9594 122.334 15.6485 121.764 15.4154C121.169 15.1822 120.573 14.975 119.977 14.8195C119.381 14.6382 118.785 14.5087 118.19 14.3792C117.594 14.2496 117.024 14.1201 116.532 13.9647C116.195 13.8611 115.91 13.7574 115.651 13.6279C115.366 13.4984 115.133 13.3689 114.951 13.1875C114.77 13.0062 114.615 12.799 114.511 12.5399C114.407 12.2809 114.356 11.97 114.356 11.6074C114.356 11.1929 114.459 10.8302 114.692 10.5194C114.9 10.2085 115.185 9.94945 115.521 9.74221C115.858 9.53497 116.221 9.37954 116.661 9.27592C117.102 9.1723 117.516 9.12049 117.931 9.12049C118.293 9.12049 118.656 9.1464 119.044 9.19821C119.407 9.27592 119.77 9.37954 120.107 9.50906C120.443 9.63859 120.728 9.81992 121.013 10.0531C121.298 10.2862 121.505 10.5453 121.687 10.8561C121.816 11.1152 121.92 11.3742 121.946 11.6592C121.972 11.9441 121.998 12.2291 121.998 12.5399L121.972 13.9906H124.847ZM130.141 29.7666V23.8344C130.736 24.3784 131.41 24.767 132.161 25.0001C132.886 25.2333 133.664 25.3369 134.467 25.3369C135.477 25.3369 136.41 25.1556 137.213 24.7929C138.016 24.4561 138.715 23.9639 139.285 23.3422C139.855 22.7205 140.295 21.9952 140.606 21.1662C140.891 20.3373 141.046 19.4565 141.046 18.498C141.046 17.5655 140.891 16.6847 140.606 15.8557C140.295 15.0268 139.855 14.3014 139.285 13.6797C138.715 13.058 138.016 12.5658 137.213 12.2032C136.41 11.8664 135.477 11.6851 134.467 11.6851C133.638 11.6851 132.861 11.7887 132.109 12.0218C131.358 12.255 130.685 12.6694 130.089 13.2134V12.0218H127.395V29.7666H130.141ZM130.141 18.498C130.141 17.9022 130.244 17.3323 130.426 16.7883C130.607 16.2702 130.892 15.8298 131.254 15.4413C131.591 15.0527 132.032 14.7677 132.524 14.5346C133.016 14.3274 133.586 14.2237 134.234 14.2237C134.881 14.2237 135.477 14.3274 135.969 14.5346C136.461 14.7677 136.876 15.0527 137.213 15.4413C137.549 15.8298 137.782 16.2702 137.964 16.7883C138.145 17.3064 138.223 17.8763 138.223 18.498C138.223 19.1197 138.145 19.6896 137.964 20.2077C137.782 20.7258 137.549 21.1662 137.213 21.5548C136.876 21.9434 136.461 22.2283 135.969 22.4355C135.477 22.6687 134.881 22.7723 134.234 22.7723C133.586 22.7723 133.016 22.6687 132.524 22.4355C132.032 22.2283 131.591 21.9434 131.254 21.5548C130.892 21.1662 130.607 20.7258 130.426 20.1818C130.244 19.6637 130.141 19.0938 130.141 18.498ZM144.781 10.9338C145.325 10.9338 145.818 10.7525 146.206 10.3898C146.595 10.0272 146.802 9.56088 146.802 8.99097C146.802 8.44697 146.595 7.98068 146.206 7.59211C145.818 7.22944 145.325 7.04811 144.781 7.04811C144.237 7.04811 143.745 7.22944 143.357 7.59211C142.968 7.98068 142.761 8.44697 142.761 8.99097C142.761 9.56088 142.968 10.0272 143.357 10.3898C143.745 10.7525 144.237 10.9338 144.781 10.9338ZM143.408 25.0001H146.154V12.0218H143.408V25.0001ZM156.687 14.6382V12.0218H156.428H155.987H155.314C154.77 12.0218 154.226 12.0477 153.682 12.0995C153.138 12.1514 152.594 12.3068 152.102 12.5399V12.0218H149.356V25.0001H152.076V20.2336C152.076 19.586 152.076 18.9643 152.102 18.3167C152.127 17.695 152.127 17.0733 152.127 16.4256C152.127 16.063 152.231 15.7521 152.412 15.4931C152.594 15.2599 152.853 15.0527 153.164 14.8973C153.475 14.7677 153.811 14.6641 154.2 14.5864C154.588 14.5346 154.951 14.5087 155.314 14.5087C155.495 14.5087 155.676 14.5087 155.858 14.5346C156.039 14.5605 156.22 14.5864 156.402 14.6123L156.687 14.6382ZM160.24 10.9338C160.784 10.9338 161.276 10.7525 161.665 10.3898C162.054 10.0272 162.261 9.56088 162.261 8.99097C162.261 8.44697 162.054 7.98068 161.665 7.59211C161.276 7.22944 160.784 7.04811 160.24 7.04811C159.696 7.04811 159.204 7.22944 158.816 7.59211C158.427 7.98068 158.22 8.44697 158.22 8.99097C158.22 9.56088 158.427 10.0272 158.816 10.3898C159.204 10.7525 159.696 10.9338 160.24 10.9338ZM158.867 25.0001H161.613V12.0218H158.867V25.0001ZM174.088 12.0218H170.021V7.74754H167.172V12.0218H163.338V14.5087H167.172V19.1715C167.172 19.3529 167.172 19.5083 167.172 19.6637C167.146 19.8451 167.146 20.0264 167.146 20.2077C167.146 21.218 167.25 22.047 167.431 22.6687C167.612 23.2904 167.923 23.7826 168.363 24.1194C168.804 24.4561 169.348 24.6893 170.021 24.8188C170.695 24.9483 171.524 25.0001 172.482 25.0001H174.088V22.4355H173.829H172.534C171.99 22.4355 171.472 22.4096 170.954 22.3578C170.591 22.306 170.358 22.2283 170.255 22.1247C170.151 22.0211 170.073 21.7879 170.047 21.3994C170.021 21.1662 169.995 20.9072 170.021 20.674C170.021 20.4409 170.021 20.2077 170.021 19.9746V14.5087H174.088V12.0218Z" fill="white"/>
<path d="M74.0877 39.6225C73.85 39.6225 73.6153 39.5829 73.3837 39.5036C73.1521 39.4305 72.9357 39.3208 72.7346 39.1745C72.5334 39.0221 72.3536 38.8362 72.1951 38.6168C72.0428 38.3973 71.93 38.1444 71.8569 37.8579L72.4054 37.6293C72.4603 37.8366 72.5395 38.0286 72.6431 38.2053C72.7529 38.3821 72.8809 38.5345 73.0271 38.6625C73.1734 38.7905 73.338 38.8911 73.5209 38.9642C73.7037 39.0312 73.8988 39.0648 74.106 39.0648C74.3071 39.0648 74.4991 39.0373 74.682 38.9825C74.8649 38.9215 75.0233 38.8362 75.1574 38.7265C75.2976 38.6107 75.4073 38.4735 75.4866 38.3151C75.5658 38.1505 75.6054 37.9676 75.6054 37.7665C75.6054 37.4191 75.4774 37.1387 75.2214 36.9253C74.9654 36.7059 74.5936 36.5109 74.106 36.3402L73.6946 36.1939C73.4995 36.1269 73.3075 36.0476 73.1186 35.9562C72.9296 35.8587 72.759 35.7429 72.6066 35.6088C72.4603 35.4747 72.3414 35.3162 72.25 35.1333C72.1586 34.9444 72.1129 34.725 72.1129 34.4751C72.1129 34.2495 72.1586 34.0331 72.25 33.8259C72.3475 33.6187 72.4816 33.4389 72.6523 33.2865C72.823 33.1341 73.0271 33.0122 73.2649 32.9208C73.5026 32.8293 73.7616 32.7836 74.042 32.7836C74.3407 32.7836 74.6028 32.8293 74.8283 32.9208C75.0538 33.0061 75.2458 33.1158 75.4043 33.2499C75.5689 33.3779 75.6969 33.5181 75.7883 33.6705C75.8858 33.8229 75.9559 33.9631 75.9986 34.0911L75.45 34.3196C75.4195 34.2099 75.3677 34.1002 75.2946 33.9905C75.2275 33.8747 75.1361 33.768 75.0203 33.6705C74.9045 33.573 74.7673 33.4937 74.6089 33.4328C74.4504 33.3718 74.2645 33.3413 74.0511 33.3413C73.8683 33.3413 73.6946 33.3688 73.53 33.4236C73.3715 33.4785 73.2283 33.5577 73.1003 33.6613C72.9784 33.7589 72.8809 33.8777 72.8077 34.0179C72.7407 34.1581 72.7071 34.3105 72.7071 34.4751C72.7071 34.6335 72.7376 34.7737 72.7986 34.8956C72.8656 35.0114 72.957 35.1181 73.0729 35.2156C73.1887 35.3071 73.3258 35.3924 73.4843 35.4716C73.6428 35.5448 73.8165 35.6149 74.0054 35.6819L74.426 35.8373C74.6698 35.9227 74.8984 36.0202 75.1117 36.1299C75.3311 36.2396 75.5201 36.3707 75.6786 36.5231C75.837 36.6693 75.962 36.8431 76.0534 37.0442C76.151 37.2453 76.1997 37.477 76.1997 37.7391C76.1997 38.0682 76.1357 38.3516 76.0077 38.5893C75.8797 38.8271 75.7151 39.0221 75.514 39.1745C75.3129 39.3269 75.0843 39.4396 74.8283 39.5128C74.5784 39.5859 74.3315 39.6225 74.0877 39.6225ZM79.1071 34.8499C79.4362 34.8499 79.7379 34.9109 80.0122 35.0328C80.2926 35.1547 80.5334 35.3223 80.7345 35.5356C80.9356 35.749 81.0911 36.0019 81.2008 36.2945C81.3166 36.581 81.3745 36.8949 81.3745 37.2362C81.3745 37.5775 81.3166 37.8945 81.2008 38.1871C81.0911 38.4735 80.9356 38.7234 80.7345 38.9368C80.5334 39.1501 80.2926 39.3177 80.0122 39.4396C79.7379 39.5615 79.4362 39.6225 79.1071 39.6225C78.784 39.6225 78.4823 39.5615 78.2019 39.4396C77.9276 39.3177 77.6899 39.1501 77.4888 38.9368C77.2876 38.7234 77.1292 38.4735 77.0134 38.1871C76.9036 37.8945 76.8488 37.5775 76.8488 37.2362C76.8488 36.8949 76.9036 36.581 77.0134 36.2945C77.1292 36.0019 77.2876 35.749 77.4888 35.5356C77.6899 35.3223 77.9276 35.1547 78.2019 35.0328C78.4823 34.9109 78.784 34.8499 79.1071 34.8499ZM79.1071 39.0922C79.3265 39.0922 79.5368 39.0495 79.7379 38.9642C79.9391 38.8728 80.1158 38.7478 80.2682 38.5893C80.4267 38.4248 80.5516 38.2297 80.6431 38.0042C80.7406 37.7726 80.7894 37.5166 80.7894 37.2362C80.7894 36.9558 80.7406 36.7029 80.6431 36.4773C80.5516 36.2457 80.4267 36.0507 80.2682 35.8922C80.1158 35.7276 79.9391 35.6027 79.7379 35.5173C79.5368 35.4259 79.3265 35.3802 79.1071 35.3802C78.8876 35.3802 78.6774 35.4259 78.4762 35.5173C78.2751 35.6027 78.0953 35.7276 77.9368 35.8922C77.7844 36.0507 77.6625 36.2457 77.5711 36.4773C77.4796 36.7029 77.4339 36.9558 77.4339 37.2362C77.4339 37.5166 77.4796 37.7726 77.5711 38.0042C77.6625 38.2297 77.7844 38.4248 77.9368 38.5893C78.0953 38.7478 78.2751 38.8728 78.4762 38.9642C78.6774 39.0495 78.8876 39.0922 79.1071 39.0922ZM85.1785 35.5265H83.1671V39.4762H82.5819V35.5265H81.7408V34.9962H82.5819V34.2191C82.5819 33.9996 82.6185 33.8046 82.6916 33.6339C82.7648 33.4632 82.8623 33.32 82.9842 33.2042C83.1122 33.0884 83.2555 33.0031 83.4139 32.9482C83.5724 32.8872 83.74 32.8568 83.9168 32.8568C84.0814 32.8568 84.2216 32.875 84.3374 32.9116C84.4593 32.9421 84.5598 32.9817 84.6391 33.0305L84.4745 33.5425C84.4075 33.4998 84.3282 33.4663 84.2368 33.4419C84.1515 33.4114 84.0509 33.3962 83.9351 33.3962C83.7278 33.3962 83.548 33.4724 83.3956 33.6248C83.2433 33.7711 83.1671 33.9874 83.1671 34.2739V34.9962H85.1785V33.6248H85.7636V34.9962H86.8791V35.5265H85.7636V38.2236C85.7636 38.4857 85.8276 38.6808 85.9556 38.8088C86.0776 38.9429 86.2238 39.0099 86.3945 39.0099C86.4859 39.0099 86.5621 39.0038 86.6231 38.9916C86.6901 38.9733 86.7633 38.9459 86.8425 38.9093L87.0254 39.4122C86.9217 39.461 86.8151 39.4945 86.7054 39.5128C86.6017 39.5371 86.4768 39.5493 86.3305 39.5493C86.0136 39.5493 85.7454 39.4488 85.5259 39.2476C85.4162 39.144 85.3309 39.0191 85.2699 38.8728C85.209 38.7204 85.1785 38.5375 85.1785 38.3242V35.5265ZM91.9593 39.4762L90.6884 35.6911L89.4359 39.4762H88.869L87.3879 34.9962H87.9821L89.1616 38.6808H89.1707L90.3959 34.9962H91.0176L92.2519 38.6625H92.261L93.4313 34.9962H94.0073L92.5262 39.4762H91.9593ZM97.5516 38.6808H97.515C97.3626 38.9429 97.1493 39.1653 96.875 39.3482C96.6068 39.5311 96.2929 39.6225 95.9333 39.6225C95.6895 39.6225 95.464 39.5829 95.2567 39.5036C95.0495 39.4305 94.8697 39.3299 94.7173 39.2019C94.5649 39.0678 94.4461 38.9093 94.3607 38.7265C94.2754 38.5436 94.2327 38.3455 94.2327 38.1322C94.2327 37.8884 94.2815 37.672 94.379 37.4831C94.4826 37.2941 94.6198 37.1356 94.7904 37.0076C94.9672 36.8796 95.1683 36.7851 95.3939 36.7242C95.6255 36.6571 95.8693 36.6236 96.1253 36.6236C96.4301 36.6236 96.7043 36.6602 96.9482 36.7333C97.192 36.8004 97.3931 36.8796 97.5516 36.9711V36.6968C97.5516 36.4956 97.515 36.3128 97.4419 36.1482C97.3687 35.9836 97.2712 35.8434 97.1493 35.7276C97.0274 35.6118 96.8811 35.5234 96.7104 35.4625C96.5459 35.4015 96.3722 35.3711 96.1893 35.3711C95.915 35.3711 95.6712 35.432 95.4579 35.5539C95.2445 35.6697 95.0678 35.8404 94.9276 36.0659L94.4156 35.7459C94.5923 35.4716 94.8331 35.2552 95.1379 35.0968C95.4426 34.9322 95.787 34.8499 96.171 34.8499C96.4697 34.8499 96.7379 34.8956 96.9756 34.9871C97.2133 35.0724 97.4175 35.1973 97.5882 35.3619C97.7588 35.5204 97.8899 35.7124 97.9813 35.9379C98.0727 36.1573 98.1184 36.4042 98.1184 36.6785V39.4762H97.5516V38.6808ZM97.5516 37.4831C97.3687 37.3733 97.1676 37.285 96.9482 37.2179C96.7348 37.1448 96.491 37.1082 96.2167 37.1082C96.0156 37.1082 95.8297 37.1326 95.659 37.1813C95.4944 37.2301 95.3482 37.3002 95.2202 37.3916C95.0982 37.477 95.0007 37.5836 94.9276 37.7116C94.8605 37.8396 94.827 37.9829 94.827 38.1413C94.827 38.2876 94.8575 38.4217 94.9184 38.5436C94.9855 38.6594 95.0739 38.76 95.1836 38.8453C95.2933 38.9246 95.4152 38.9886 95.5493 39.0373C95.6895 39.08 95.8327 39.1013 95.979 39.1013C96.1802 39.1013 96.3752 39.0587 96.5642 38.9733C96.7531 38.888 96.9207 38.7722 97.067 38.6259C97.2133 38.4735 97.3291 38.2998 97.4144 38.1048C97.5059 37.9097 97.5516 37.7025 97.5516 37.4831ZM99.132 39.4762V34.9962H99.6806V35.7825H99.7172C99.7598 35.6484 99.8269 35.5265 99.9183 35.4168C100.016 35.301 100.122 35.2034 100.238 35.1242C100.36 35.0389 100.485 34.9749 100.613 34.9322C100.747 34.8895 100.875 34.8682 100.997 34.8682C101.137 34.8682 101.253 34.8773 101.345 34.8956C101.436 34.9139 101.524 34.9444 101.61 34.9871L101.427 35.5356C101.305 35.4747 101.137 35.4442 100.924 35.4442C100.766 35.4442 100.613 35.4838 100.467 35.5631C100.321 35.6362 100.193 35.7398 100.083 35.8739C99.9732 36.008 99.8848 36.1695 99.8177 36.3585C99.7507 36.5413 99.7172 36.7425 99.7172 36.9619V39.4762H99.132ZM105.84 38.4156C105.761 38.5802 105.66 38.7356 105.538 38.8819C105.416 39.0282 105.273 39.1562 105.109 39.2659C104.95 39.3756 104.767 39.461 104.56 39.5219C104.353 39.589 104.124 39.6225 103.874 39.6225C103.551 39.6225 103.253 39.5646 102.978 39.4488C102.704 39.3269 102.466 39.1592 102.265 38.9459C102.07 38.7326 101.918 38.4827 101.808 38.1962C101.698 37.9036 101.643 37.5836 101.643 37.2362C101.643 36.9131 101.692 36.6084 101.79 36.3219C101.893 36.0293 102.04 35.7764 102.229 35.5631C102.418 35.3436 102.646 35.1699 102.914 35.0419C103.182 34.9139 103.484 34.8499 103.819 34.8499C104.142 34.8499 104.432 34.9078 104.688 35.0236C104.95 35.1333 105.173 35.2918 105.355 35.4991C105.538 35.7002 105.678 35.944 105.776 36.2305C105.88 36.517 105.931 36.8339 105.931 37.1813C105.931 37.1996 105.931 37.2179 105.931 37.2362C105.925 37.2545 105.922 37.2697 105.922 37.2819V37.3368H102.238C102.244 37.6476 102.299 37.9128 102.402 38.1322C102.506 38.3516 102.637 38.5345 102.795 38.6808C102.954 38.821 103.131 38.9246 103.326 38.9916C103.521 39.0587 103.71 39.0922 103.893 39.0922C104.27 39.0922 104.569 39.0069 104.789 38.8362C105.008 38.6594 105.191 38.437 105.337 38.1688L105.84 38.4156ZM105.319 36.8431C105.313 36.6968 105.282 36.5383 105.227 36.3676C105.173 36.197 105.087 36.0385 104.971 35.8922C104.856 35.7459 104.7 35.624 104.505 35.5265C104.316 35.429 104.082 35.3802 103.801 35.3802C103.618 35.3802 103.442 35.4137 103.271 35.4808C103.1 35.5417 102.945 35.6331 102.805 35.7551C102.67 35.877 102.555 36.0293 102.457 36.2122C102.366 36.3951 102.305 36.6053 102.274 36.8431H105.319ZM109.055 32.9299H110.957C111.469 32.9299 111.929 33.0122 112.338 33.1768C112.746 33.3352 113.09 33.5577 113.371 33.8442C113.657 34.1307 113.874 34.4751 114.02 34.8773C114.172 35.2796 114.248 35.7215 114.248 36.2031C114.248 36.6846 114.172 37.1265 114.02 37.5288C113.874 37.9311 113.657 38.2754 113.371 38.5619C113.09 38.8484 112.746 39.0739 112.338 39.2385C111.929 39.397 111.469 39.4762 110.957 39.4762H109.055V32.9299ZM110.957 38.9185C111.365 38.9185 111.734 38.8575 112.063 38.7356C112.399 38.6137 112.682 38.437 112.914 38.2053C113.151 37.9737 113.334 37.6903 113.462 37.3551C113.59 37.0198 113.654 36.6358 113.654 36.2031C113.654 35.7764 113.59 35.3954 113.462 35.0602C113.334 34.7189 113.151 34.4324 112.914 34.2008C112.682 33.9691 112.399 33.7924 112.063 33.6705C111.734 33.5486 111.365 33.4876 110.957 33.4876H109.64V38.9185H110.957ZM118.947 38.4156C118.868 38.5802 118.767 38.7356 118.645 38.8819C118.524 39.0282 118.38 39.1562 118.216 39.2659C118.057 39.3756 117.874 39.461 117.667 39.5219C117.46 39.589 117.231 39.6225 116.981 39.6225C116.658 39.6225 116.36 39.5646 116.085 39.4488C115.811 39.3269 115.573 39.1592 115.372 38.9459C115.177 38.7326 115.025 38.4827 114.915 38.1962C114.805 37.9036 114.751 37.5836 114.751 37.2362C114.751 36.9131 114.799 36.6084 114.897 36.3219C115 36.0293 115.147 35.7764 115.336 35.5631C115.525 35.3436 115.753 35.1699 116.021 35.0419C116.29 34.9139 116.591 34.8499 116.927 34.8499C117.25 34.8499 117.539 34.9078 117.795 35.0236C118.057 35.1333 118.28 35.2918 118.463 35.4991C118.645 35.7002 118.786 35.944 118.883 36.2305C118.987 36.517 119.039 36.8339 119.039 37.1813C119.039 37.1996 119.039 37.2179 119.039 37.2362C119.032 37.2545 119.029 37.2697 119.029 37.2819V37.3368H115.345C115.351 37.6476 115.406 37.9128 115.509 38.1322C115.613 38.3516 115.744 38.5345 115.903 38.6808C116.061 38.821 116.238 38.9246 116.433 38.9916C116.628 39.0587 116.817 39.0922 117 39.0922C117.378 39.0922 117.676 39.0069 117.896 38.8362C118.115 38.6594 118.298 38.437 118.444 38.1688L118.947 38.4156ZM118.426 36.8431C118.42 36.6968 118.389 36.5383 118.335 36.3676C118.28 36.197 118.194 36.0385 118.079 35.8922C117.963 35.7459 117.807 35.624 117.612 35.5265C117.423 35.429 117.189 35.3802 116.908 35.3802C116.725 35.3802 116.549 35.4137 116.378 35.4808C116.207 35.5417 116.052 35.6331 115.912 35.7551C115.778 35.877 115.662 36.0293 115.564 36.2122C115.473 36.3951 115.412 36.6053 115.381 36.8431H118.426ZM119.263 34.9962H119.885L121.412 38.8179H121.43L122.966 34.9962H123.579L121.732 39.4762H121.092L119.263 34.9962ZM127.956 38.4156C127.877 38.5802 127.776 38.7356 127.654 38.8819C127.532 39.0282 127.389 39.1562 127.225 39.2659C127.066 39.3756 126.883 39.461 126.676 39.5219C126.469 39.589 126.24 39.6225 125.99 39.6225C125.667 39.6225 125.369 39.5646 125.094 39.4488C124.82 39.3269 124.582 39.1592 124.381 38.9459C124.186 38.7326 124.034 38.4827 123.924 38.1962C123.814 37.9036 123.76 37.5836 123.76 37.2362C123.76 36.9131 123.808 36.6084 123.906 36.3219C124.009 36.0293 124.156 35.7764 124.345 35.5631C124.534 35.3436 124.762 35.1699 125.03 35.0419C125.299 34.9139 125.6 34.8499 125.936 34.8499C126.259 34.8499 126.548 34.9078 126.804 35.0236C127.066 35.1333 127.289 35.2918 127.472 35.4991C127.654 35.7002 127.795 35.944 127.892 36.2305C127.996 36.517 128.048 36.8339 128.048 37.1813C128.048 37.1996 128.048 37.2179 128.048 37.2362C128.041 37.2545 128.038 37.2697 128.038 37.2819V37.3368H124.354C124.36 37.6476 124.415 37.9128 124.518 38.1322C124.622 38.3516 124.753 38.5345 124.912 38.6808C125.07 38.821 125.247 38.9246 125.442 38.9916C125.637 39.0587 125.826 39.0922 126.009 39.0922C126.387 39.0922 126.685 39.0069 126.905 38.8362C127.124 38.6594 127.307 38.437 127.453 38.1688L127.956 38.4156ZM127.435 36.8431C127.429 36.6968 127.398 36.5383 127.344 36.3676C127.289 36.197 127.203 36.0385 127.088 35.8922C126.972 35.7459 126.816 35.624 126.621 35.5265C126.432 35.429 126.198 35.3802 125.917 35.3802C125.734 35.3802 125.558 35.4137 125.387 35.4808C125.216 35.5417 125.061 35.6331 124.921 35.7551C124.787 35.877 124.671 36.0293 124.573 36.2122C124.482 36.3951 124.421 36.6053 124.39 36.8431H127.435ZM128.864 39.4762V32.9299H129.449V39.4762H128.864ZM132.473 34.8499C132.802 34.8499 133.104 34.9109 133.378 35.0328C133.659 35.1547 133.899 35.3223 134.101 35.5356C134.302 35.749 134.457 36.0019 134.567 36.2945C134.683 36.581 134.741 36.8949 134.741 37.2362C134.741 37.5775 134.683 37.8945 134.567 38.1871C134.457 38.4735 134.302 38.7234 134.101 38.9368C133.899 39.1501 133.659 39.3177 133.378 39.4396C133.104 39.5615 132.802 39.6225 132.473 39.6225C132.15 39.6225 131.848 39.5615 131.568 39.4396C131.294 39.3177 131.056 39.1501 130.855 38.9368C130.654 38.7234 130.495 38.4735 130.379 38.1871C130.27 37.8945 130.215 37.5775 130.215 37.2362C130.215 36.8949 130.27 36.581 130.379 36.2945C130.495 36.0019 130.654 35.749 130.855 35.5356C131.056 35.3223 131.294 35.1547 131.568 35.0328C131.848 34.9109 132.15 34.8499 132.473 34.8499ZM132.473 39.0922C132.693 39.0922 132.903 39.0495 133.104 38.9642C133.305 38.8728 133.482 38.7478 133.634 38.5893C133.793 38.4248 133.918 38.2297 134.009 38.0042C134.107 37.7726 134.155 37.5166 134.155 37.2362C134.155 36.9558 134.107 36.7029 134.009 36.4773C133.918 36.2457 133.793 36.0507 133.634 35.8922C133.482 35.7276 133.305 35.6027 133.104 35.5173C132.903 35.4259 132.693 35.3802 132.473 35.3802C132.254 35.3802 132.043 35.4259 131.842 35.5173C131.641 35.6027 131.461 35.7276 131.303 35.8922C131.151 36.0507 131.029 36.2457 130.937 36.4773C130.846 36.7029 130.8 36.9558 130.8 37.2362C130.8 37.5166 130.846 37.7726 130.937 38.0042C131.029 38.2297 131.151 38.4248 131.303 38.5893C131.461 38.7478 131.641 38.8728 131.842 38.9642C132.043 39.0495 132.254 39.0922 132.473 39.0922ZM135.47 34.9962H136.019V35.7733H136.056C136.129 35.6514 136.217 35.5356 136.321 35.4259C136.424 35.3101 136.546 35.2095 136.686 35.1242C136.827 35.0389 136.985 34.9718 137.162 34.9231C137.339 34.8743 137.534 34.8499 137.747 34.8499C138.034 34.8499 138.305 34.9109 138.561 35.0328C138.817 35.1486 139.039 35.3131 139.228 35.5265C139.423 35.7337 139.576 35.9836 139.685 36.2762C139.801 36.5688 139.859 36.8888 139.859 37.2362C139.859 37.5836 139.801 37.9036 139.685 38.1962C139.576 38.4888 139.423 38.7417 139.228 38.9551C139.039 39.1623 138.817 39.3269 138.561 39.4488C138.305 39.5646 138.034 39.6225 137.747 39.6225C137.534 39.6225 137.339 39.5951 137.162 39.5402C136.985 39.4914 136.827 39.4244 136.686 39.3391C136.546 39.2537 136.424 39.1562 136.321 39.0465C136.217 38.9307 136.129 38.8118 136.056 38.6899H136.019L136.056 39.3116V41.4511H135.47V34.9962ZM137.646 39.0922C137.86 39.0922 138.064 39.0495 138.259 38.9642C138.46 38.8789 138.634 38.757 138.78 38.5985C138.933 38.44 139.051 38.245 139.137 38.0133C139.228 37.7817 139.274 37.5227 139.274 37.2362C139.274 36.9497 139.228 36.6937 139.137 36.4682C139.051 36.2366 138.933 36.0415 138.78 35.8831C138.634 35.7185 138.46 35.5935 138.259 35.5082C138.064 35.4229 137.86 35.3802 137.646 35.3802C137.433 35.3802 137.226 35.4229 137.025 35.5082C136.83 35.5874 136.656 35.7063 136.504 35.8648C136.357 36.0232 136.238 36.2183 136.147 36.4499C136.062 36.6815 136.019 36.9436 136.019 37.2362C136.019 37.5288 136.062 37.7909 136.147 38.0225C136.238 38.248 136.357 38.4431 136.504 38.6076C136.656 38.7661 136.83 38.888 137.025 38.9733C137.226 39.0526 137.433 39.0922 137.646 39.0922ZM140.632 34.9962H141.181V35.8373H141.217C141.278 35.7032 141.36 35.5783 141.464 35.4625C141.568 35.3406 141.683 35.2339 141.811 35.1425C141.946 35.0511 142.089 34.981 142.241 34.9322C142.4 34.8773 142.561 34.8499 142.726 34.8499C143.098 34.8499 143.402 34.9474 143.64 35.1425C143.878 35.3375 144.039 35.5844 144.125 35.8831C144.271 35.5905 144.481 35.3467 144.755 35.1516C145.03 34.9505 145.359 34.8499 145.743 34.8499C146.011 34.8499 146.24 34.8956 146.429 34.9871C146.624 35.0724 146.782 35.1943 146.904 35.3528C147.032 35.5112 147.123 35.7002 147.178 35.9196C147.239 36.1391 147.27 36.3768 147.27 36.6328V39.4762H146.685V36.7333C146.685 36.2884 146.599 35.9531 146.429 35.7276C146.258 35.496 145.981 35.3802 145.597 35.3802C145.395 35.3802 145.21 35.429 145.039 35.5265C144.874 35.6179 144.731 35.7429 144.609 35.9013C144.493 36.0537 144.402 36.2335 144.335 36.4408C144.274 36.6419 144.243 36.8522 144.243 37.0716V39.4762H143.658V36.7516C143.658 36.2945 143.57 35.9531 143.393 35.7276C143.223 35.496 142.951 35.3802 142.579 35.3802C142.372 35.3802 142.183 35.429 142.013 35.5265C141.848 35.624 141.705 35.7551 141.583 35.9196C141.467 36.0842 141.376 36.2731 141.309 36.4865C141.248 36.6937 141.217 36.9101 141.217 37.1356V39.4762H140.632V34.9962ZM152.242 38.4156C152.163 38.5802 152.062 38.7356 151.94 38.8819C151.818 39.0282 151.675 39.1562 151.51 39.2659C151.352 39.3756 151.169 39.461 150.962 39.5219C150.755 39.589 150.526 39.6225 150.276 39.6225C149.953 39.6225 149.654 39.5646 149.38 39.4488C149.106 39.3269 148.868 39.1592 148.667 38.9459C148.472 38.7326 148.32 38.4827 148.21 38.1962C148.1 37.9036 148.045 37.5836 148.045 37.2362C148.045 36.9131 148.094 36.6084 148.192 36.3219C148.295 36.0293 148.441 35.7764 148.63 35.5631C148.819 35.3436 149.048 35.1699 149.316 35.0419C149.584 34.9139 149.886 34.8499 150.221 34.8499C150.544 34.8499 150.834 34.9078 151.09 35.0236C151.352 35.1333 151.574 35.2918 151.757 35.4991C151.94 35.7002 152.08 35.944 152.178 36.2305C152.281 36.517 152.333 36.8339 152.333 37.1813C152.333 37.1996 152.333 37.2179 152.333 37.2362C152.327 37.2545 152.324 37.2697 152.324 37.2819V37.3368H148.64C148.646 37.6476 148.7 37.9128 148.804 38.1322C148.908 38.3516 149.039 38.5345 149.197 38.6808C149.356 38.821 149.532 38.9246 149.728 38.9916C149.923 39.0587 150.112 39.0922 150.294 39.0922C150.672 39.0922 150.971 39.0069 151.19 38.8362C151.41 38.6594 151.593 38.437 151.739 38.1688L152.242 38.4156ZM151.721 36.8431C151.715 36.6968 151.684 36.5383 151.629 36.3676C151.574 36.197 151.489 36.0385 151.373 35.8922C151.257 35.7459 151.102 35.624 150.907 35.5265C150.718 35.429 150.483 35.3802 150.203 35.3802C150.02 35.3802 149.843 35.4137 149.673 35.4808C149.502 35.5417 149.347 35.6331 149.206 35.7551C149.072 35.877 148.956 36.0293 148.859 36.2122C148.768 36.3951 148.707 36.6053 148.676 36.8431H151.721ZM153.698 35.8373H153.735C153.808 35.7032 153.897 35.5783 154 35.4625C154.104 35.3406 154.223 35.2339 154.357 35.1425C154.497 35.0511 154.649 34.981 154.814 34.9322C154.978 34.8773 155.155 34.8499 155.344 34.8499C155.618 34.8499 155.859 34.8956 156.066 34.9871C156.274 35.0724 156.444 35.1973 156.578 35.3619C156.719 35.5204 156.822 35.7124 156.889 35.9379C156.956 36.1573 156.99 36.4011 156.99 36.6693V39.4762H156.405V36.7699C156.405 36.2884 156.298 35.9379 156.085 35.7185C155.871 35.493 155.573 35.3802 155.189 35.3802C154.975 35.3802 154.78 35.429 154.604 35.5265C154.427 35.6179 154.274 35.7459 154.146 35.9105C154.018 36.069 153.918 36.2518 153.845 36.4591C153.772 36.6663 153.735 36.8827 153.735 37.1082V39.4762H153.15V34.9962H153.698V35.8373ZM158.313 35.5265H157.5V34.9962H158.313V33.6248H158.899V34.9962H160.014V35.5265H158.899V38.2236C158.899 38.4857 158.963 38.6808 159.091 38.8088C159.213 38.9429 159.359 39.0099 159.529 39.0099C159.621 39.0099 159.697 39.0038 159.758 38.9916C159.825 38.9733 159.898 38.9459 159.977 38.9093L160.16 39.4122C160.057 39.461 159.95 39.4945 159.84 39.5128C159.737 39.5371 159.612 39.5493 159.465 39.5493C159.149 39.5493 158.88 39.4488 158.661 39.2476C158.551 39.144 158.466 39.0191 158.405 38.8728C158.344 38.7204 158.313 38.5375 158.313 38.3242V35.5265Z" fill="#424242" fill-opacity="0.7"/>
<path fill-rule="evenodd" clip-rule="evenodd" d="M27.9467 6.31666C27.9467 4.94865 26.8524 3.8357 25.5073 3.8357C24.1621 3.8357 23.0678 4.94865 23.0678 6.31666C23.0678 7.68466 24.1621 8.79761 25.5073 8.79761C26.8524 8.79761 27.9467 7.68466 27.9467 6.31666ZM30.3862 6.33984C30.3862 3.60384 28.1975 1.37793 25.5073 1.37793C22.817 1.37793 20.6283 3.60384 20.6283 6.33984C20.6283 9.07585 22.817 11.3018 25.5073 11.3018C28.1975 11.3018 30.3862 9.07585 30.3862 6.33984ZM27.9239 23.243C27.4451 21.875 26.5104 20.5997 25.5072 19.51C24.5041 18.4434 23.4325 17.5391 22.6118 16.9362C22.3838 16.7507 22.1558 16.5884 21.905 16.4261L21.905 16.4261C21.6998 16.287 21.4946 16.1479 21.2667 16.0319L21.2439 16.0088C18.4729 14.3133 15.2344 13.5461 12.8922 12.9912L12.8083 12.9713C5.78626 11.2787 3.0048 8.65855 3.0048 8.65855C3.0048 8.65855 2.04725 17.1681 7.33658 22.3851C9.77605 24.7965 11.7596 26.095 13.2187 26.8138C13.2187 26.8138 14.1534 27.2775 15.4758 27.7645C15.5232 27.7782 15.5929 27.8003 15.677 27.8268C15.8755 27.8895 16.1543 27.9775 16.4105 28.0427C16.5929 28.0891 16.9121 28.1586 17.0717 28.1818L17.2313 31.5439C17.131 31.5253 17.0161 31.5068 16.9012 31.4882C16.7288 31.4604 16.5564 31.4326 16.4333 31.4048C15.9227 31.2801 15.5036 31.1369 15.2251 31.0417C15.1927 31.0307 15.1623 31.0203 15.1338 31.0106C2.64002 26.5819 -2.05654 15.9624 0.816116 3.04736C4.72594 7.52558 9.40823 8.90423 14.1848 10.3106C18.0149 11.4383 21.9055 12.5839 25.5072 15.3595C28.2887 17.8405 30.2722 19.8114 31.5033 23.7068C32.5749 27.092 32.2557 30.4541 31.1158 33.7698C30.1126 36.6913 28.6079 39.5897 25.53 42.488V38.1057L25.5528 38.1289C25.5683 38.1077 25.5865 38.0829 25.6074 38.0546C26.2005 37.2482 28.8853 33.5976 28.9955 28.6919C29.0183 26.9761 28.7447 25.2603 27.9239 23.243ZM48.0097 8.65855C48.0097 8.65855 45.2282 11.2787 38.2062 12.9713C35.7211 13.5741 32.1531 14.6837 29.212 16.6082L28.4825 15.8894C28.1633 15.5184 27.8441 15.217 27.5249 14.9388L27.1145 14.5214C30.2101 12.5712 33.4757 11.5514 36.7019 10.5439C41.5307 9.03595 46.2713 7.55556 50.2212 3.02417C53.1166 15.9624 48.4201 26.5819 35.8807 31.0338C35.8522 31.0434 35.8217 31.0539 35.7893 31.0649C35.5108 31.1601 35.0917 31.3033 34.5812 31.428C34.3988 31.4743 33.9449 31.5777 33.5547 31.5777L33.7371 28.2156C33.9449 28.2156 34.4444 28.1122 34.6268 28.0659C34.883 28.0007 35.1618 27.9127 35.3603 27.85C35.4444 27.8234 35.514 27.8014 35.5615 27.7876C36.8839 27.3007 37.8186 26.837 37.8186 26.837C39.2777 26.1182 41.2612 24.8197 43.7007 22.4083C48.99 17.1681 48.0097 8.65855 48.0097 8.65855ZM23.3414 22.6865C23.5921 22.1069 23.9113 21.5968 24.2989 21.0867C24.0025 20.6693 23.7043 20.3331 23.3851 20.0549L23.2939 19.9622C22.8607 19.568 22.4066 19.2781 21.9962 19.0694C20.9475 20.5302 20.0583 22.0837 19.534 23.7299C18.4624 27.1152 18.7816 30.4773 19.9215 33.793C20.9247 36.7145 22.4294 39.6129 25.5072 42.5112V38.1289L25.4844 38.1521C25.469 38.1309 25.4507 38.1061 25.4299 38.0778C24.8368 37.2714 22.1519 33.6208 22.0418 28.7151C21.9962 26.837 22.3382 24.9588 23.3414 22.6865Z" fill="white"/>
</svg>
