<svg xmlns="http://www.w3.org/2000/svg" data-name="Layer 1" viewBox="0 0 100 100" x="0px" y="0px"><title>A_31</title><path d="M6.07031,6.84821C2.494,25.859,7.44476,52.32745,27.55872,72.44141s46.58239,25.06475,65.5932,21.48834a2.26043,2.26043,0,0,0,1.83654-2.44794L92.663,68.52972a2.25278,2.25278,0,0,0-1.7669-1.97522L64.90875,60.95715a2.25273,2.25273,0,0,0-2.41095,1.05139L56.36792,72.32343a2.2637,2.2637,0,0,1-3.15784.744,83.164,83.164,0,0,1-14.5877-11.68975A83.16427,83.16427,0,0,1,26.93262,46.79a2.26376,2.26376,0,0,1,.74408-3.15784l10.31488-6.12994A2.25277,2.25277,0,0,0,39.043,35.09131L33.44556,9.10406a2.2527,2.2527,0,0,0-1.97516-1.767L8.51831,5.01166A2.26049,2.26049,0,0,0,6.07031,6.84821Z"/></svg>