<svg width="23" height="24" viewBox="0 0 23 24" fill="none" xmlns="http://www.w3.org/2000/svg">
<path d="M4.7168 10.0237C5.83144 10.0237 6.73828 9.10756 6.73828 7.98149C6.73828 6.85542 5.83144 5.93928 4.7168 5.93928C3.60215 5.93928 2.69531 6.85542 2.69531 7.98149C2.69531 9.10756 3.60215 10.0237 4.7168 10.0237ZM4.7168 7.30075C5.08835 7.30075 5.39062 7.60613 5.39062 7.98149C5.39062 8.35684 5.08835 8.66222 4.7168 8.66222C4.34525 8.66222 4.04297 8.35684 4.04297 7.98149C4.04297 7.60613 4.34525 7.30075 4.7168 7.30075ZM22.3262 0.402649H16.9355C16.5634 0.402649 16.2617 0.707436 16.2617 1.08338V6.52925C16.2617 6.80459 16.4259 7.05283 16.6777 7.15816C16.9295 7.26354 17.2193 7.20527 17.412 7.01058L18.5623 5.84852H22.3262C22.6983 5.84852 23 5.54373 23 5.16779V1.08338C23 0.707436 22.6983 0.402649 22.3262 0.402649ZM21.6523 4.48705H18.2832C18.1045 4.48705 17.9331 4.5588 17.8068 4.68646L17.6094 4.88583V1.76412H21.6523V4.48705ZM10.1074 11.3852H4.7168C4.34466 11.3852 4.04297 11.6899 4.04297 12.0659C4.04297 12.4418 4.34466 12.7466 4.7168 12.7466H10.1074C10.4796 12.7466 10.7812 12.4418 10.7812 12.0659C10.7812 11.6899 10.4796 11.3852 10.1074 11.3852ZM10.1074 10.0237C11.2221 10.0237 12.1289 9.10756 12.1289 7.98149C12.1289 6.85542 11.2221 5.93928 10.1074 5.93928C8.99277 5.93928 8.08594 6.85542 8.08594 7.98149C8.08594 9.10756 8.99277 10.0237 10.1074 10.0237ZM10.1074 7.30075C10.479 7.30075 10.7812 7.60613 10.7812 7.98149C10.7812 8.35684 10.479 8.66222 10.1074 8.66222C9.73587 8.66222 9.43359 8.35684 9.43359 7.98149C9.43359 7.60613 9.73587 7.30075 10.1074 7.30075ZM14.1504 3.21635H8.08594V1.08338C8.08594 0.707436 7.78424 0.402649 7.41211 0.402649C7.03998 0.402649 6.73828 0.707436 6.73828 1.08338V3.21635H0.673828C0.301695 3.21635 0 3.52114 0 3.89708V14.7888C0 15.1648 0.301695 15.4696 0.673828 15.4696H5.39062V16.831H0.673828C0.301695 16.831 0 17.1358 0 17.5118V22.9576C0 23.3336 0.301695 23.6384 0.673828 23.6384H14.1504C14.5225 23.6384 14.8242 23.3336 14.8242 22.9576V17.5118C14.8242 17.1358 14.5225 16.831 14.1504 16.831H9.43359V15.4696H14.1504C14.5225 15.4696 14.8242 15.1648 14.8242 14.7888V3.89708C14.8242 3.52114 14.5225 3.21635 14.1504 3.21635ZM10.7812 22.2769H4.04297V20.9154H10.7812V22.2769ZM13.4766 18.1925V22.2769H12.1289V20.2347C12.1289 19.8588 11.8272 19.554 11.4551 19.554H3.36914C2.99701 19.554 2.69531 19.8588 2.69531 20.2347V22.2769H1.34766V18.1925H13.4766ZM6.73828 16.831V15.4696H8.08594V16.831H6.73828ZM13.4766 14.1081H1.34766V4.57782H13.4766V14.1081Z" fill="#99CC33"/>
</svg>
