<svg xmlns="http://www.w3.org/2000/svg" width="393" height="393" viewBox="0 0 393 393" fill="none">
    <line y1="-1" x2="253" y2="-1" transform="matrix(0.99958 -0.0289921 0.0291957 0.999574 41 176)" stroke="#EF3355" stroke-width="2"/>
    <line y1="-1" x2="144" y2="-1" transform="matrix(0.287605 0.957749 -0.958301 0.285762 40 176)" stroke="#EF3355" stroke-width="2"/>
    <line y1="-1" x2="256" y2="-1" transform="matrix(-0.819534 0.573031 -0.575727 -0.817642 292 167)" stroke="#EF3355" stroke-width="2"/>
    <line y1="-1" x2="85" y2="-1" transform="matrix(-0.665314 0.746563 -0.748873 -0.662714 187 283)" stroke="#EF3355" stroke-width="2"/>
    <line y1="-1" x2="71" y2="-1" transform="matrix(-0.369963 0.929047 -0.929932 -0.367731 32 191)" stroke="#EF3355" stroke-width="2"/>
    <line y1="-1" x2="63" y2="-1" transform="matrix(-0.837991 -0.545684 0.548369 -0.836237 60 291)" stroke="#EF3355" stroke-width="2"/>
    <line y1="-1" x2="77" y2="-1" transform="matrix(-0.14286 -0.989743 0.989883 -0.141883 41 314)" stroke="#EF3355" stroke-width="2"/>
    <line y1="-1" x2="57" y2="-1" transform="matrix(-0.961777 -0.273833 0.275612 -0.961269 95 329)" stroke="#EF3355" stroke-width="2"/>
    <line y1="-1" x2="179" y2="-1" transform="matrix(-0.197562 0.98029 -0.980557 -0.196237 292 167)" stroke="#EF3355" stroke-width="2"/>
    <line y1="-1" x2="166" y2="-1" transform="matrix(-0.558462 0.82953 -0.831336 -0.555771 348 207)" stroke="#EF3355" stroke-width="2"/>
    <line y1="-1" x2="230" y2="-1" transform="matrix(-0.333565 0.942727 -0.943458 -0.331493 379 141)" stroke="#EF3355" stroke-width="2"/>
    <line y1="-1" x2="109" y2="-1" transform="matrix(-0.0387538 0.999249 -0.999259 -0.0384837 357 206)" stroke="#EF3355" stroke-width="2"/>
    <line y1="-1" x2="89" y2="-1" transform="matrix(0.0296765 0.99956 -0.999566 0.0294696 351 225)" stroke="#EF3355" stroke-width="2"/>
    <line y1="-1" x2="74" y2="-1" transform="matrix(0.476658 0.879089 -0.880481 0.474081 318 248)" stroke="#EF3355" stroke-width="2"/>
    <line y1="-1" x2="84" y2="-1" transform="matrix(0.311615 0.950208 -0.950851 0.309649 292 168)" stroke="#EF3355" stroke-width="2"/>
    <line y1="-1" x2="69" y2="-1" transform="matrix(0.816231 0.577726 -0.580422 0.814316 292 168)" stroke="#EF3355" stroke-width="2"/>
    <line y1="-1" x2="78" y2="-1" transform="matrix(0.0640804 0.997945 -0.997973 0.0636349 343 129)" stroke="#EF3355" stroke-width="2"/>
    <line y1="-1" x2="65" y2="-1" transform="matrix(-0.798109 0.602514 -0.605201 -0.796073 343 128)" stroke="#EF3355" stroke-width="2"/>
    <line y1="-1" x2="94" y2="-1" transform="matrix(-0.0336181 0.999435 -0.999443 -0.0333837 294 74)" stroke="#EF3355" stroke-width="2"/>
    <line y1="-1" x2="177" y2="-1" transform="matrix(0.410079 0.91205 -0.913119 0.407694 278 63)" stroke="#EF3355" stroke-width="2"/>
    <line y1="-1" x2="109" y2="-1" transform="matrix(0.776752 0.629806 -0.632466 0.774588 295 74)" stroke="#EF3355" stroke-width="2"/>
    <line y1="-1" x2="44" y2="-1" transform="matrix(-0.248908 0.968527 -0.968945 -0.247277 354 86)" stroke="#EF3355" stroke-width="2"/>
    <line y1="-1" x2="61" y2="-1" transform="matrix(0.976945 0.213493 -0.214925 0.976631 295 74)" stroke="#EF3355" stroke-width="2"/>
    <line y1="-1" x2="74" y2="-1" transform="matrix(0.657312 0.753618 -0.755894 0.654695 295 74)" stroke="#EF3355" stroke-width="2"/>
    <line y1="-1" x2="85" y2="-1" transform="matrix(0.566031 0.824384 -0.826227 0.563337 343 129)" stroke="#EF3355" stroke-width="2"/>
    <line y1="-1" x2="44" y2="-1" transform="matrix(0.9798 -0.19998 0.201329 0.979524 348 208)" stroke="#EF3355" stroke-width="2"/>
    <line y1="-1" x2="56" y2="-1" transform="matrix(0.331382 0.943497 -0.944218 0.329321 357 206)" stroke="#EF3355" stroke-width="2"/>
    <line y1="-1" x2="77" y2="-1" transform="matrix(-0.725181 0.688558 -0.691091 -0.722768 376 258)" stroke="#EF3355" stroke-width="2"/>
    <line y1="-1" x2="155" y2="-1" transform="matrix(-0.631676 0.775232 -0.777393 -0.629015 351 226)" stroke="#EF3355" stroke-width="2"/>
    <line y1="-1" x2="81" y2="-1" transform="matrix(-0.824967 0.565182 -0.567876 -0.823114 391 198)" stroke="#EF3355" stroke-width="2"/>
    <line y1="-1" x2="250" y2="-1" transform="matrix(0.606692 0.794937 -0.79698 0.604005 111 139)" stroke="#EF3355" stroke-width="2"/>
    <line y1="-1" x2="272" y2="-1" transform="matrix(0.841414 0.540391 -0.543072 0.839686 34 191)" stroke="#EF3355" stroke-width="2"/>
    <line y1="-1" x2="320" y2="-1" transform="matrix(0.943836 0.330414 -0.332481 0.94311 50 119)" stroke="#EF3355" stroke-width="2"/>
    <line y1="-1" x2="169" y2="-1" transform="matrix(0.257926 0.966165 -0.966612 0.256245 33 192)" stroke="#EF3355" stroke-width="2"/>
    <line y1="-1" x2="187" y2="-1" transform="matrix(0.995713 -0.0924962 0.0931408 0.995653 77 356)" stroke="#EF3355" stroke-width="2"/>
    <line y1="-1" x2="144" y2="-1" transform="matrix(0.992875 -0.119162 0.119987 0.992775 77 355)" stroke="#EF3355" stroke-width="2"/>
    <line y1="-1" x2="43" y2="-1" transform="matrix(0.999953 0.00969777 -0.00976593 0.999952 220 338)" stroke="#EF3355" stroke-width="2"/>
    <line y1="-1" x2="228" y2="-1" transform="matrix(0.58541 0.810737 -0.812677 0.582714 0 200)" stroke="#EF3355" stroke-width="2"/>
    <line y1="-1" x2="163" y2="-1" transform="matrix(0.788145 0.615489 -0.618166 0.786048 60 291)" stroke="#EF3355" stroke-width="2"/>
    <line y1="-1" x2="46" y2="-1" transform="matrix(0.932008 0.362439 -0.364649 0.931145 60 292)" stroke="#EF3355" stroke-width="2"/>
    <line y1="-1" x2="48" y2="-1" transform="matrix(0.603093 0.797671 -0.799697 0.600405 102 308)" stroke="#EF3355" stroke-width="2"/>
    <line y1="-1" x2="93" y2="-1" transform="matrix(0.277857 0.960622 -0.961139 0.276066 77 219)" stroke="#EF3355" stroke-width="2"/>
    <line y1="-1" x2="75" y2="-1" transform="matrix(-0.202135 0.979358 -0.979636 -0.200781 75 218)" stroke="#EF3355" stroke-width="2"/>
    <line y1="-1" x2="67" y2="-1" transform="matrix(-0.589985 0.807414 -0.809376 -0.587291 40 146)" stroke="#EF3355" stroke-width="2"/>
    <line y1="-1" x2="45" y2="-1" transform="matrix(-0.931328 0.36418 -0.366398 -0.930458 50 118)" stroke="#EF3355" stroke-width="2"/>
    <line y1="-1" x2="78" y2="-1" transform="matrix(-0.775342 0.631542 -0.634199 -0.77317 111 69)" stroke="#EF3355" stroke-width="2"/>
    <line y1="-1" x2="43" y2="-1" transform="matrix(-0.714351 -0.699788 0.702285 -0.711896 111 69)" stroke="#EF3355" stroke-width="2"/>
    <line y1="-1" x2="87" y2="-1" transform="matrix(-0.937711 -0.347417 0.349562 -0.936913 162 70)" stroke="#EF3355" stroke-width="2"/>
    <line y1="-1" x2="50" y2="-1" transform="matrix(-0.999941 -0.0108263 0.0109024 -0.999941 162 70)" stroke="#EF3355" stroke-width="2"/>
    <line y1="-1" x2="48" y2="-1" transform="matrix(-0.999472 0.0324769 -0.0327049 -0.999465 159 62)" stroke="#EF3355" stroke-width="2"/>
    <line y1="-1" x2="93" y2="-1" transform="matrix(-0.943251 -0.332082 0.334152 -0.942519 247 93)" stroke="#EF3355" stroke-width="2"/>
    <line y1="-1" x2="74" y2="-1" transform="matrix(-0.686856 -0.726794 0.729189 -0.684313 248 92)" stroke="#EF3355" stroke-width="2"/>
    <line y1="-1" x2="118" y2="-1" transform="matrix(-0.998332 0.0577361 -0.0581405 -0.998308 279 63)" stroke="#EF3355" stroke-width="2"/>
    <line y1="-1" x2="184" y2="-1" transform="matrix(-0.90984 0.41496 -0.41737 -0.908737 279 63)" stroke="#EF3355" stroke-width="2"/>
    <line y1="-1" x2="94" y2="-1" transform="matrix(-0.836367 0.54817 -0.550857 -0.8346 111 139)" stroke="#EF3355" stroke-width="2"/>
    <line y1="-1" x2="46" y2="-1" transform="matrix(-0.848198 0.529679 -0.53235 -0.846524 41 174)" stroke="#EF3355" stroke-width="2"/>
    <line y1="-1" x2="75" y2="-1" transform="matrix(-0.230189 0.973146 -0.973505 -0.228667 50 118)" stroke="#EF3355" stroke-width="2"/>
    <line y1="-1" x2="92" y2="-1" transform="matrix(-0.00573424 0.999984 -0.999984 -0.00569421 40 84)" stroke="#EF3355" stroke-width="2"/>
    <line y1="-1" x2="42" y2="-1" transform="matrix(-0.595389 0.803437 -0.805426 -0.592696 66 140)" stroke="#EF3355" stroke-width="2"/>
    <line y1="-1" x2="62" y2="-1" transform="matrix(-0.997789 -0.0664659 0.066931 -0.997758 127 145)" stroke="#EF3355" stroke-width="2"/>
    <line y1="-1" x2="172" y2="-1" transform="matrix(-0.918543 0.395321 -0.397662 -0.917532 286 77)" stroke="#EF3355" stroke-width="2"/>
    <line y1="-1" x2="77" y2="-1" transform="matrix(0.22412 0.974561 -0.974902 0.222634 111 70)" stroke="#EF3355" stroke-width="2"/>
    <line y1="-1" x2="85" y2="-1" transform="matrix(-0.588416 0.808558 -0.810513 -0.585721 161 70)" stroke="#EF3355" stroke-width="2"/>
    <line y1="-1" x2="87" y2="-1" transform="matrix(-0.338914 0.940817 -0.94157 -0.336818 158 62)" stroke="#EF3355" stroke-width="2"/>
    <line y1="-1" x2="45" y2="-1" transform="matrix(-0.84688 0.531784 -0.534458 -0.845195 197 38)" stroke="#EF3355" stroke-width="2"/>
    <line y1="-1" x2="64" y2="-1" transform="matrix(-0.929487 0.368855 -0.371092 -0.928596 256 15)" stroke="#EF3355" stroke-width="2"/>
    <line y1="-1" x2="71" y2="-1" transform="matrix(-0.562848 -0.82656 0.828388 -0.560155 295 73)" stroke="#EF3355" stroke-width="2"/>
    <line y1="-1" x2="68" y2="-1" transform="matrix(-0.997629 -0.0688252 0.0693067 -0.997595 312 41)" stroke="#EF3355" stroke-width="2"/>
    <line y1="-1" x2="61" y2="-1" transform="matrix(-0.275612 -0.961269 0.961777 -0.273833 328 100)" stroke="#EF3355" stroke-width="2"/>
    <line y1="-1" x2="89" y2="-1" transform="matrix(-0.798194 0.602401 -0.605088 -0.796158 195 2)" stroke="#EF3355" stroke-width="2"/>
    <line y1="-1" x2="171" y2="-1" transform="matrix(-0.93486 -0.355017 0.357195 -0.93403 295 74)" stroke="#EF3355" stroke-width="2"/>
    <line y1="-1" x2="145" y2="-1" transform="matrix(-0.480677 0.876898 -0.87831 -0.478091 135 14)" stroke="#EF3355" stroke-width="2"/>
    <line x1="112" y1="64" x2="112" y2="139" stroke="#EF3355" stroke-width="2"/>
    <line y1="-1" x2="63" y2="-1" transform="matrix(0.397459 0.91762 -0.91863 0.395119 40 84)" stroke="#EF3355" stroke-width="2"/>
    <line y1="-1" x2="84" y2="-1" transform="matrix(-0.350831 0.936439 -0.937242 -0.34868 79 39)" stroke="#EF3355" stroke-width="2"/>
    <line y1="-1" x2="163" y2="-1" transform="matrix(-0.959326 0.2823 -0.284125 -0.958787 197 38)" stroke="#EF3355" stroke-width="2"/>
    <line y1="-1" x2="76" y2="-1" transform="matrix(-0.451238 0.892403 -0.89367 -0.448725 195 2)" stroke="#EF3355" stroke-width="2"/>
    <line y1="-1" x2="123" y2="-1" transform="matrix(0.80658 0.591125 -0.593818 0.804599 195 2)" stroke="#EF3355" stroke-width="2"/>
    <line y1="-1" x2="274" y2="-1" transform="matrix(-0.928924 0.370271 -0.372513 -0.928027 295 73)" stroke="#EF3355" stroke-width="2"/>
    <line y1="-1" x2="63" y2="-1" transform="matrix(0.383987 0.923338 -0.924287 0.381699 8 134)" stroke="#EF3355" stroke-width="2"/>
    <line y1="-1" x2="170" y2="-1" transform="matrix(0.979148 0.203148 -0.204516 0.978863 82 313)" stroke="#EF3355" stroke-width="2"/>
    <line y1="-1" x2="89" y2="-1" transform="matrix(0.960658 -0.277735 0.279535 0.960135 102 309)" stroke="#EF3355" stroke-width="2"/>
    <line y1="-1" x2="231" y2="-1" transform="matrix(-0.952786 0.303644 -0.30558 -0.952166 354 313)" stroke="#EF3355" stroke-width="2"/>
    <line y1="-1" x2="63" y2="-1" transform="matrix(-0.526825 0.849973 -0.851619 -0.524161 221 337)" stroke="#EF3355" stroke-width="2"/>
    <line y1="-1" x2="92" y2="-1" transform="matrix(-0.813151 0.582052 -0.584748 -0.811215 262 337)" stroke="#EF3355" stroke-width="2"/>
    <line y1="-1" x2="72" y2="-1" transform="matrix(-0.632195 0.774809 -0.776972 -0.629535 301 331)" stroke="#EF3355" stroke-width="2"/>
    <line y1="-1" x2="65" y2="-1" transform="matrix(-0.938047 -0.346509 0.348649 -0.937253 256 387)" stroke="#EF3355" stroke-width="2"/>
    <line y1="-1" x2="68" y2="-1" transform="matrix(-0.999879 -0.0155685 0.0156779 -0.999877 305 356)" stroke="#EF3355" stroke-width="2"/>
    <line y1="-1" x2="49" y2="-1" transform="matrix(-0.911945 -0.410312 0.412706 -0.910864 306 356)" stroke="#EF3355" stroke-width="2"/>
</svg>
