<svg
  width="53"
  height="53"
  viewBox="0 0 53 53"
  fill="none"
  xmlns="http://www.w3.org/2000/svg"
>
<path
    d="M17.6923 12C16.947 12.005 16.2166 12.2036 15.5769 12.575C14.9373 12.2036 14.2069 12.005 13.4615 12C12.3399 12.0013 11.2645 12.4344 10.4714 13.2044C9.67828 13.9744 9.23211 15.0183 9.23077 16.1071V16.9286H5.84615C5.62174 16.9286 5.40652 17.0151 5.24783 17.1692C5.08915 17.3232 5 17.5321 5 17.75V30.8929C5.00134 31.9817 5.44752 33.0256 6.24065 33.7956C7.03378 34.5656 8.10911 34.9987 9.23077 35H23.6154C24.513 35 25.3739 34.6538 26.0087 34.0376C26.6434 33.4214 27 32.5857 27 31.7143V17.75C27 17.5321 26.9109 17.3232 26.7522 17.1692C26.5935 17.0151 26.3783 16.9286 26.1538 16.9286H23.6154C23.391 16.9286 23.1757 17.0151 23.0171 17.1692C22.8584 17.3232 22.7692 17.5321 22.7692 17.75C22.7692 17.9679 22.8584 18.1768 23.0171 18.3308C23.1757 18.4849 23.391 18.5714 23.6154 18.5714H25.0725C24.8869 18.8843 24.6 19.1289 24.2564 19.2672C23.9128 19.4055 23.5317 19.4296 23.1725 19.3359C22.8133 19.2422 22.4961 19.036 22.2701 18.7491C22.0441 18.4623 21.9221 18.1111 21.9231 17.75V16.1071C21.9217 15.0183 21.4756 13.9744 20.6824 13.2044C19.8893 12.4344 18.814 12.0013 17.6923 12ZM20.2308 16.1071V16.9286H17.6923V16.1071C17.6915 15.2702 17.4257 14.4538 16.9308 13.7685C17.1763 13.6884 17.4333 13.646 17.6923 13.6429C18.3656 13.6429 19.0112 13.9025 19.4873 14.3646C19.9633 14.8268 20.2308 15.4536 20.2308 16.1071ZM15.5769 14.7501C15.853 15.1519 16.0003 15.6242 16 16.1071V16.9286H15.1538V16.1071C15.1536 15.6242 15.3008 15.1519 15.5769 14.7501ZM10.9231 16.1071C10.9231 15.4536 11.1905 14.8268 11.6666 14.3646C12.1426 13.9025 12.7883 13.6429 13.4615 13.6429C13.7206 13.646 13.9775 13.6884 14.2231 13.7685C13.7282 14.4538 13.4623 15.2702 13.4615 16.1071V16.9286H10.9231V16.1071ZM6.69231 30.8929V18.5714H9.23077V20.2143C9.00636 20.2143 8.79113 20.3008 8.63245 20.4549C8.47376 20.6089 8.38462 20.8179 8.38462 21.0357C8.38462 21.2536 8.47376 21.4625 8.63245 21.6166C8.79113 21.7706 9.00636 21.8571 9.23077 21.8571H10.9231C11.1475 21.8571 11.3627 21.7706 11.5214 21.6166C11.6801 21.4625 11.7692 21.2536 11.7692 21.0357C11.7692 20.8179 11.6801 20.6089 11.5214 20.4549C11.3627 20.3008 11.1475 20.2143 10.9231 20.2143V18.5714H16V20.2143C15.7756 20.2143 15.5604 20.3008 15.4017 20.4549C15.243 20.6089 15.1538 20.8179 15.1538 21.0357C15.1538 21.2536 15.243 21.4625 15.4017 21.6166C15.5604 21.7706 15.7756 21.8571 16 21.8571H17.6923C17.9167 21.8571 18.1319 21.7706 18.2906 21.6166C18.4493 21.4625 18.5385 21.2536 18.5385 21.0357C18.5385 20.8179 18.4493 20.6089 18.2906 20.4549C18.1319 20.3008 17.9167 20.2143 17.6923 20.2143V18.5714H20.2308V31.7143C20.2343 32.2928 20.3967 32.8599 20.7012 33.3571H9.23077C8.55753 33.3571 7.91186 33.0975 7.43581 32.6354C6.95975 32.1732 6.69231 31.5464 6.69231 30.8929ZM23.6154 21.0357C24.2113 21.0323 24.7955 20.8747 25.3077 20.579V31.7143C25.3077 32.15 25.1294 32.5679 24.812 32.876C24.4947 33.1841 24.0642 33.3571 23.6154 33.3571C23.1666 33.3571 22.7361 33.1841 22.4187 32.876C22.1014 32.5679 21.9231 32.15 21.9231 31.7143V20.579C22.4353 20.8747 23.0195 21.0323 23.6154 21.0357Z"
    fill="#343434"
  />
<path
    d="M51.175 35.0707H44.575C44.3562 35.0707 44.1464 35.1599 43.9916 35.3186C43.8369 35.4774 43.75 35.6927 43.75 35.9172V36.7636H42.3228C41.8354 36.7655 41.3586 36.6181 40.9533 36.3404L31.8865 30.1443C31.7288 30.0361 31.5398 29.9863 31.3508 30.0032C31.1618 30.0202 30.984 30.1028 30.847 30.2374L30.4345 30.6522C30.0901 30.9989 29.8238 31.4186 29.6542 31.8821C29.4846 32.3455 29.4159 32.8414 29.4529 33.335C29.4898 33.8286 29.6315 34.3079 29.8681 34.7393C30.1046 35.1707 30.4303 35.5439 30.8223 35.8325L32.101 36.7636H21.475C20.8186 36.7636 20.1891 37.0312 19.7249 37.5074C19.2608 37.9836 19 38.6296 19 39.303C19 39.9765 19.2608 40.6224 19.7249 41.0987C20.1891 41.5749 20.8186 41.8424 21.475 41.8424H25.7485C25.6525 42.1139 25.6022 42.4001 25.6 42.6889C25.6016 43.3157 25.8311 43.9194 26.2435 44.3818C25.8297 44.8434 25.6 45.4476 25.6 46.0748C25.6 46.7019 25.8297 47.3061 26.2435 47.7677C25.8311 48.2301 25.6016 48.8338 25.6 49.4606C25.602 50.1335 25.8633 50.7782 26.3271 51.254C26.7908 51.7298 27.4192 51.998 28.075 52H38.7257C39.5074 51.9768 40.2674 51.7306 40.9202 51.289L41.7205 50.7303C42.1288 50.4524 42.6083 50.3051 43.0982 50.3071H43.75V51.1535C43.75 51.378 43.8369 51.5933 43.9916 51.7521C44.1464 51.9108 44.3562 52 44.575 52H51.175C51.3938 52 51.6036 51.9108 51.7584 51.7521C51.9131 51.5933 52 51.378 52 51.1535V35.9172C52 35.6927 51.9131 35.4774 51.7584 35.3186C51.6036 35.1599 51.3938 35.0707 51.175 35.0707ZM43.75 48.6141H43.0982C42.2821 48.6139 41.4842 48.8613 40.8048 49.3252L40.0045 49.8754C39.6185 50.1427 39.1665 50.2924 38.701 50.3071H28.075C27.8562 50.3071 27.6464 50.2179 27.4916 50.0591C27.3369 49.9004 27.25 49.6851 27.25 49.4606C27.25 49.2361 27.3369 49.0208 27.4916 48.8621C27.6464 48.7033 27.8562 48.6141 28.075 48.6141H29.725C29.9438 48.6141 30.1536 48.525 30.3084 48.3662C30.4631 48.2075 30.55 47.9922 30.55 47.7677C30.55 47.5432 30.4631 47.3279 30.3084 47.1691C30.1536 47.0104 29.9438 46.9212 29.725 46.9212H28.075C27.8562 46.9212 27.6464 46.832 27.4916 46.6733C27.3369 46.5146 27.25 46.2992 27.25 46.0748C27.25 45.8503 27.3369 45.635 27.4916 45.4762C27.6464 45.3175 27.8562 45.2283 28.075 45.2283H29.725C29.9438 45.2283 30.1536 45.1391 30.3084 44.9804C30.4631 44.8216 30.55 44.6063 30.55 44.3818C30.55 44.1573 30.4631 43.942 30.3084 43.7833C30.1536 43.6245 29.9438 43.5354 29.725 43.5354H28.075C27.8562 43.5354 27.6464 43.4462 27.4916 43.2874C27.3369 43.1287 27.25 42.9134 27.25 42.6889C27.25 42.4644 27.3369 42.2491 27.4916 42.0904C27.6464 41.9316 27.8562 41.8424 28.075 41.8424H29.725C29.9438 41.8424 30.1536 41.7533 30.3084 41.5945C30.4631 41.4358 30.55 41.2205 30.55 40.996C30.55 40.7715 30.4631 40.5562 30.3084 40.3974C30.1536 40.2387 29.9438 40.1495 29.725 40.1495H21.475C21.2562 40.1495 21.0464 40.0603 20.8916 39.9016C20.7369 39.7428 20.65 39.5275 20.65 39.303C20.65 39.0785 20.7369 38.8632 20.8916 38.7045C21.0464 38.5458 21.2562 38.4566 21.475 38.4566H34.675C34.8489 38.4554 35.018 38.3979 35.1581 38.2923C35.2983 38.1867 35.4023 38.0383 35.4554 37.8684C35.5084 37.6985 35.5078 37.5158 35.4536 37.3462C35.3994 37.1767 35.2944 37.0291 35.1535 36.9245L31.7875 34.4528C31.5984 34.3128 31.4402 34.1335 31.323 33.9266C31.2059 33.7197 31.1325 33.4898 31.1076 33.2519C31.0827 33.014 31.1069 32.7734 31.1785 32.5457C31.2502 32.318 31.3677 32.1084 31.5235 31.9303L40.0375 37.7455C40.7139 38.2093 41.5092 38.4568 42.3228 38.4566H43.75V48.6141ZM50.35 50.3071H45.4V36.7636H50.35V50.3071Z"
    fill="#343434"
  />
<path
    d="M48 48C48.2652 48 48.5196 47.9298 48.7071 47.8047C48.8946 47.6797 49 47.5101 49 47.3333V46.6667C49 46.4899 48.8946 46.3203 48.7071 46.1953C48.5196 46.0702 48.2652 46 48 46C47.7348 46 47.4804 46.0702 47.2929 46.1953C47.1054 46.3203 47 46.4899 47 46.6667V47.3333C47 47.5101 47.1054 47.6797 47.2929 47.8047C47.4804 47.9298 47.7348 48 48 48Z"
    fill="#343434"
  />
<path
    d="M46.4821 2H4.51786C3.85069 2.00196 3.21142 2.26396 2.73966 2.72877C2.26791 3.19358 2.00199 3.82343 2 4.48077V42.5192C2.00199 43.1766 2.26791 43.8064 2.73966 44.2712C3.21142 44.736 3.85069 44.998 4.51786 45H23.8214C24.044 45 24.2575 44.9129 24.4149 44.7578C24.5723 44.6027 24.6607 44.3924 24.6607 44.1731C24.6607 43.9538 24.5723 43.7434 24.4149 43.5884C24.2575 43.4333 24.044 43.3462 23.8214 43.3462H4.51786C4.29526 43.3462 4.08179 43.259 3.92439 43.104C3.767 42.9489 3.67857 42.7385 3.67857 42.5192V10.2692H47.3214V33.4231C47.3214 33.6424 47.4099 33.8527 47.5672 34.0078C47.7246 34.1629 47.9381 34.25 48.1607 34.25C48.3833 34.25 48.5968 34.1629 48.7542 34.0078C48.9116 33.8527 49 33.6424 49 33.4231V4.48077C48.998 3.82343 48.7321 3.19358 48.2603 2.72877C47.7886 2.26396 47.1493 2.00196 46.4821 2ZM47.3214 8.61538H3.67857V4.48077C3.67857 4.26146 3.767 4.05112 3.92439 3.89605C4.08179 3.74097 4.29526 3.65385 4.51786 3.65385H46.4821C46.7047 3.65385 46.9182 3.74097 47.0756 3.89605C47.233 4.05112 47.3214 4.26146 47.3214 4.48077V8.61538Z"
    fill="#343434"
  />
<path
    d="M16 5H15C14.7348 5 14.4804 5.10536 14.2929 5.29289C14.1054 5.48043 14 5.73478 14 6C14 6.26522 14.1054 6.51957 14.2929 6.70711C14.4804 6.89464 14.7348 7 15 7H16C16.2652 7 16.5196 6.89464 16.7071 6.70711C16.8946 6.51957 17 6.26522 17 6C17 5.73478 16.8946 5.48043 16.7071 5.29289C16.5196 5.10536 16.2652 5 16 5Z"
    fill="#343434"
  />
<path
    d="M12 5H11C10.7348 5 10.4804 5.10536 10.2929 5.29289C10.1054 5.48043 10 5.73478 10 6C10 6.26522 10.1054 6.51957 10.2929 6.70711C10.4804 6.89464 10.7348 7 11 7H12C12.2652 7 12.5196 6.89464 12.7071 6.70711C12.8946 6.51957 13 6.26522 13 6C13 5.73478 12.8946 5.48043 12.7071 5.29289C12.5196 5.10536 12.2652 5 12 5Z"
    fill="#343434"
  />
<path
    d="M6.33333 5H5.66667C5.48986 5 5.32029 5.10536 5.19526 5.29289C5.07024 5.48043 5 5.73478 5 6C5 6.26522 5.07024 6.51957 5.19526 6.70711C5.32029 6.89464 5.48986 7 5.66667 7H6.33333C6.51014 7 6.67971 6.89464 6.80474 6.70711C6.92976 6.51957 7 6.26522 7 6C7 5.73478 6.92976 5.48043 6.80474 5.29289C6.67971 5.10536 6.51014 5 6.33333 5Z"
    fill="#343434"
  />
<path
    d="M43 14.7778C43 14.5715 42.9144 14.3737 42.762 14.2278C42.6097 14.0819 42.403 14 42.1875 14H30.8125C30.597 14 30.3903 14.0819 30.238 14.2278C30.0856 14.3737 30 14.5715 30 14.7778V20.2222C30 20.4285 30.0856 20.6263 30.238 20.7722C30.3903 20.9181 30.597 21 30.8125 21H42.1875C42.403 21 42.6097 20.9181 42.762 20.7722C42.9144 20.6263 43 20.4285 43 20.2222V14.7778ZM41.375 19.4444H31.625V15.5556H41.375V19.4444Z"
    fill="#343434"
  />
<path
    d="M42.1875 23H30.8125C30.597 23 30.3903 23.1054 30.238 23.2929C30.0856 23.4804 30 23.7348 30 24C30 24.2652 30.0856 24.5196 30.238 24.7071C30.3903 24.8946 30.597 25 30.8125 25H42.1875C42.403 25 42.6097 24.8946 42.762 24.7071C42.9144 24.5196 43 24.2652 43 24C43 23.7348 42.9144 23.4804 42.762 23.2929C42.6097 23.1054 42.403 23 42.1875 23Z"
    fill="#343434"
  />
<path
    d="M43.1667 26H34.8333C34.6123 26 34.4004 26.1054 34.2441 26.2929C34.0878 26.4804 34 26.7348 34 27C34 27.2652 34.0878 27.5196 34.2441 27.7071C34.4004 27.8946 34.6123 28 34.8333 28H43.1667C43.3877 28 43.5996 27.8946 43.7559 27.7071C43.9122 27.5196 44 27.2652 44 27C44 26.7348 43.9122 26.4804 43.7559 26.2929C43.5996 26.1054 43.3877 26 43.1667 26Z"
    fill="#343434"
  />
<path
    d="M43.125 29H37.875C37.6429 29 37.4204 29.1054 37.2563 29.2929C37.0922 29.4804 37 29.7348 37 30C37 30.2652 37.0922 30.5196 37.2563 30.7071C37.4204 30.8946 37.6429 31 37.875 31H43.125C43.3571 31 43.5796 30.8946 43.7437 30.7071C43.9078 30.5196 44 30.2652 44 30C44 29.7348 43.9078 29.4804 43.7437 29.2929C43.5796 29.1054 43.3571 29 43.125 29Z"
    fill="#343434"
  />
</svg>
